<svg viewBox="0 0 649 618" fill="none" xmlns="http://www.w3.org/2000/svg">
<path d="M60.3532 41.5567C60.2255 40.7582 60.1726 39.9496 60.195 39.1413C60.195 37.416 60.1088 35.1874 60.0513 32.5276C59.965 26.949 59.9219 19.257 59.9219 10.7454V9.20703H60.3532C68.6203 9.20703 76.0536 9.20703 81.4164 9.33643L87.757 9.4802C88.5325 9.45612 89.3084 9.51395 90.0718 9.65273C89.3072 9.78079 88.5319 9.83376 87.757 9.81089L81.4164 9.95467C76.0536 10.0266 68.6203 10.0841 60.3532 10.0841L60.7989 9.65273V10.7454C60.7989 19.257 60.7989 26.949 60.6695 32.5276C60.6695 35.1874 60.5689 37.416 60.5257 39.1413C60.5585 39.9503 60.5006 40.7605 60.3532 41.5567Z" fill="#E0E0E0"/>
<path d="M120.536 77.543C120.281 76.1976 120.175 74.8283 120.219 73.4597C120.219 70.9293 120.09 67.4499 120.09 63.5967V62.6621H120.536C124.274 62.6621 127.638 62.6621 130.068 62.7915C131.378 62.7563 132.689 62.8575 133.979 63.0934C132.69 63.3384 131.379 63.4397 130.068 63.3954C127.638 63.4816 124.317 63.5248 120.536 63.5391L120.967 63.0934V63.5967C120.967 67.4499 120.967 70.9293 120.837 73.4597C120.881 74.8276 120.78 76.1964 120.536 77.543Z" fill="#E0E0E0"/>
<path d="M134.486 104.113C133.14 104.368 131.771 104.474 130.402 104.429C127.872 104.516 124.393 104.559 120.539 104.559H119.619V104.113C119.619 100.375 119.619 97.0105 119.749 94.595C119.713 93.2797 119.814 91.9643 120.05 90.6699C120.296 91.9631 120.397 93.2795 120.352 94.595C120.439 97.0105 120.482 100.346 120.496 104.113L120.05 103.682H120.554C124.407 103.682 127.886 103.682 130.417 103.811C131.78 103.768 133.144 103.869 134.486 104.113Z" fill="#E0E0E0"/>
<path d="M175.216 90.168C175.471 91.5181 175.577 92.8922 175.532 94.2656C175.604 96.7817 175.661 100.275 175.661 104.114V105.092H175.216C171.477 105.092 168.113 105.092 165.683 104.948C164.372 104.993 163.061 104.891 161.772 104.646C163.061 104.401 164.372 104.3 165.683 104.344C168.113 104.258 171.434 104.215 175.216 104.215L174.784 104.646V104.143C174.784 100.304 174.784 96.8104 174.914 94.2943C174.867 92.9121 174.968 91.5288 175.216 90.168Z" fill="#E0E0E0"/>
<path d="M161.312 63.0934C162.659 62.8488 164.028 62.7476 165.396 62.7915C167.926 62.7052 171.406 62.6621 175.259 62.6621H176.193V63.0934C176.193 66.8316 176.193 70.196 176.064 72.6258C176.109 73.9413 176.007 75.2577 175.762 76.5509C175.517 75.2577 175.415 73.9413 175.46 72.6258C175.374 70.196 175.331 66.8748 175.316 63.0934L175.762 63.5391H175.259C171.406 63.5391 167.926 63.5392 165.396 63.4098C164.027 63.4542 162.658 63.3481 161.312 63.0934Z" fill="#E0E0E0"/>
<path d="M91.1634 157.269C90.365 157.398 89.5567 157.455 88.748 157.441L82.1487 157.585C76.5701 157.657 68.8637 157.714 60.3665 157.714H58.8281V157.269C58.8281 149.016 58.8281 141.583 58.9575 136.22C58.9575 133.661 59.0582 131.533 59.0869 129.879C59.0721 129.104 59.1299 128.329 59.2594 127.564C59.389 128.329 59.4468 129.104 59.432 129.879C59.432 131.533 59.432 133.661 59.5614 136.22C59.6477 141.583 59.6908 149.016 59.6908 157.269L59.2307 156.852H60.3378C68.835 156.852 76.5414 156.852 82.1199 156.981L88.7192 157.11C89.5371 157.09 90.3551 157.143 91.1634 157.269Z" fill="#E0E0E0"/>
<path d="M233.936 125.365C234.064 126.164 234.117 126.972 234.095 127.781C234.095 129.506 234.181 131.72 234.238 134.38C234.325 139.959 234.368 147.665 234.368 156.177V157.715H233.936C225.669 157.715 218.236 157.715 212.873 157.571L206.533 157.442C205.757 157.457 204.982 157.399 204.218 157.269C204.982 157.14 205.757 157.082 206.533 157.097L212.873 156.967C218.236 156.881 225.669 156.838 233.936 156.838L233.491 157.269V156.177C233.491 147.665 233.491 139.959 233.62 134.38C233.62 131.72 233.721 129.506 233.764 127.781C233.731 126.972 233.789 126.161 233.936 125.365Z" fill="#E0E0E0"/>
<path d="M203.121 9.65273C203.917 9.50532 204.727 9.44745 205.537 9.4802L212.136 9.33643C217.714 9.33643 225.421 9.20703 233.918 9.20703H235.456V9.65273C235.456 17.9055 235.456 25.3387 235.327 30.7016C235.327 33.2464 235.226 35.3743 235.198 37.0421C235.212 37.8174 235.155 38.5924 235.025 39.3569C234.896 38.5924 234.838 37.8174 234.853 37.0421C234.853 35.3743 234.781 33.2464 234.723 30.7016C234.637 25.3387 234.594 17.9055 234.579 9.65273L235.025 10.0841H233.918C225.421 10.0841 217.714 10.0841 212.136 9.95467L205.537 9.81089C204.728 9.83334 203.92 9.78039 203.121 9.65273Z" fill="#E0E0E0"/>
<path d="M223.638 21.5282C223.641 22.1174 223.469 22.6943 223.143 23.1856C222.818 23.6769 222.354 24.0606 221.811 24.2881C221.267 24.5155 220.668 24.5765 220.09 24.4633C219.512 24.3501 218.98 24.0678 218.562 23.6521C218.145 23.2365 217.86 22.7062 217.744 22.1285C217.628 21.5508 217.686 20.9517 217.911 20.407C218.136 19.8623 218.517 19.3967 219.007 19.069C219.496 18.7413 220.072 18.5664 220.662 18.5664C221.449 18.5664 222.203 18.878 222.761 19.433C223.319 19.9881 223.634 20.7414 223.638 21.5282Z" fill="#E0E0E0"/>
<path d="M80.5949 18.5664H68.0863C67.6973 18.5664 67.3818 18.8818 67.3818 19.2709V23.7999C67.3818 24.189 67.6973 24.5044 68.0863 24.5044H80.5949C80.984 24.5044 81.2994 24.189 81.2994 23.7999V19.2709C81.2994 18.8818 80.984 18.5664 80.5949 18.5664Z" fill="#E0E0E0"/>
<path d="M84.621 20.2051H82.1768V22.8793H84.621V20.2051Z" fill="#E0E0E0"/>
<path d="M519.96 582.817C472.729 565.722 449.84 516.579 438.956 469.795C437.13 461.987 434.082 453.979 435.937 446.273C437.792 438.566 445.139 431.55 452.946 432.945C459.43 434.095 463.729 440.133 468.43 444.777C474.703 450.998 482.609 455.315 491.233 457.228C496.855 458.465 503.368 458.393 507.509 454.353C513.26 448.875 511.506 439.443 509.392 431.766C505.443 417.446 501.494 403.125 497.545 388.805C495.431 381.113 493.304 373.263 493.721 365.312C494.138 357.361 497.617 349.166 504.389 345.184C511.161 341.201 521.354 342.955 524.92 350.072C526.358 353.034 526.645 356.456 527.796 359.59C528.946 362.724 531.304 365.873 534.582 365.945C537.86 366.017 540.333 363.069 542.073 360.194C547.939 350.288 550.699 338.829 553 327.513C555.3 316.198 557.514 304.696 562.431 294.287C567.348 283.877 575.529 274.474 586.384 270.894C597.24 267.314 610.826 270.894 616.506 280.959C622.185 291.023 618.849 303.776 614.32 314.401C607.585 330.189 598.602 344.921 587.65 358.138C585.68 360.51 583.552 363.084 583.336 366.175C583.034 371.753 589.274 375.549 594.839 375.88C601.093 376.239 607.146 373.968 613.343 373.004C619.539 372.041 626.742 373.004 630.596 378.065C635.872 385.081 631.502 395.103 626.484 402.234C616.424 416.542 603.973 429.008 589.677 439.084C584.573 442.678 579.109 446.1 575.616 451.305C572.122 456.51 571.216 464.173 575.429 468.846C579.641 473.518 587.204 473.375 592.84 470.672C598.476 467.969 602.904 463.339 607.994 459.687C617.498 452.843 631.343 449.91 640.588 457.228C646.656 462.031 649.287 470.298 648.97 478.062C648.654 485.826 645.735 493.23 642.414 500.218C630.797 524.66 613.4 546.514 591.158 561.625C568.916 576.735 546.788 585.132 520.003 582.774" fill="#EBEBEB"/>
<path d="M528.607 617.354C524.98 595.277 523.478 572.904 524.121 550.541C524.667 525.308 527.543 497.703 531.54 468.933C532.575 461.744 533.591 454.647 534.588 447.64C535.594 440.652 536.601 433.722 538.01 427.008C540.727 414.119 544.154 401.39 548.276 388.879C552.129 376.902 556.226 365.687 560.137 355.235C564.048 344.782 567.901 335.106 571.783 326.48C577.835 312.764 584.97 299.553 593.119 286.97C595.995 282.513 598.338 279.134 599.963 276.906L601.818 274.346C602.01 274.039 602.237 273.754 602.494 273.498C602.331 273.823 602.143 274.136 601.933 274.433L600.193 277.078C598.655 279.407 596.398 282.829 593.594 287.329C585.659 299.998 578.686 313.243 572.732 326.954C568.922 335.581 565.141 345.314 561.23 355.709C557.319 366.104 553.336 377.405 549.526 389.353C545.477 401.812 542.112 414.483 539.448 427.31C538.01 433.981 537.075 440.854 536.055 447.856C535.034 454.858 534.042 461.96 533.021 469.135C529.024 497.89 526.105 525.423 525.501 550.584C524.799 572.864 526.19 595.161 529.657 617.181" fill="#E0E0E0"/>
<path d="M538.393 426.834C537.741 425.868 537.191 424.837 536.754 423.757C535.776 421.744 534.468 418.783 532.901 415.131C529.752 407.755 525.712 397.432 521.399 386.03C517.085 374.629 512.887 364.378 509.638 357.074C508.027 353.422 506.69 350.474 505.741 348.447C505.18 347.425 504.732 346.345 504.404 345.227C505.132 346.138 505.75 347.132 506.245 348.188C507.352 350.144 508.833 353.034 510.558 356.642C514.066 363.831 518.379 374.083 522.75 385.498C527.121 396.914 530.902 406.95 533.864 414.742C535.216 418.251 536.366 421.198 537.286 423.57C537.775 424.614 538.147 425.708 538.393 426.834Z" fill="#E0E0E0"/>
<path d="M632.38 381.746C631.155 382.373 629.874 382.888 628.556 383.284C626.083 384.19 622.488 385.484 618.103 387.224C609.304 390.646 597.313 395.779 584.33 402.033C571.347 408.287 559.888 414.498 551.664 419.2C547.552 421.529 544.274 423.513 542.002 424.85C540.867 425.627 539.658 426.292 538.394 426.834C539.419 425.912 540.526 425.084 541.7 424.361C543.886 422.924 547.078 420.753 551.132 418.294C559.212 413.348 570.671 406.993 583.683 400.696C594.777 395.3 606.141 390.477 617.729 386.246C622.186 384.622 625.838 383.471 628.383 382.738C629.681 382.28 631.019 381.948 632.38 381.746Z" fill="#E0E0E0"/>
<path d="M524.85 548.398C524.85 548.398 524.461 548.067 523.843 547.363L521.198 544.243C518.897 541.511 515.677 537.486 511.78 532.468C503.959 522.403 493.593 508.184 482.364 492.325C471.135 476.467 460.912 462.132 453.306 451.967L444.263 439.905C443.285 438.596 442.48 437.503 441.833 436.612C441.521 436.247 441.259 435.84 441.057 435.404C441.057 435.404 441.43 435.721 442.063 436.425L444.709 439.545C447.009 442.277 450.215 446.303 454.126 451.335C461.947 461.399 472.314 475.604 483.543 491.463C494.771 507.321 504.994 521.656 512.6 531.821C516.309 536.781 519.372 540.85 521.629 543.884L524.073 547.176C524.392 547.542 524.653 547.954 524.85 548.398Z" fill="#E0E0E0"/>
<path d="M644.961 470.658C644.611 471.001 644.22 471.301 643.797 471.55L640.317 473.864L627.464 482.203C616.609 489.263 601.728 499.169 585.309 510.139C568.889 521.109 553.893 530.915 542.895 537.73C537.388 541.152 532.916 543.869 529.782 545.681L526.159 547.751C525.752 548.021 525.312 548.239 524.851 548.398C524.851 548.398 525.224 548.039 526.015 547.507L529.48 545.192L542.334 536.853C553.189 529.793 568.07 519.887 584.503 508.903C600.937 497.918 615.904 488.141 626.903 481.312C632.41 477.905 636.881 475.187 640.015 473.361L643.639 471.291C644.047 471.018 644.493 470.805 644.961 470.658Z" fill="#E0E0E0"/>
<path d="M174.44 341.619L170.457 472.153C170.459 479.165 172.197 486.067 175.517 492.244C178.836 498.421 183.632 503.679 189.479 507.551C197.534 512.883 207.166 515.308 216.785 514.427C226.404 513.546 235.436 509.412 242.388 502.706L285.061 461.557L280.46 365.327L223.453 423.945L220.577 340.555L174.44 341.619Z" fill="#EDEDED"/>
<path d="M344.828 292.117L288.166 318.011L228.183 406.477L278.217 471.981L316.519 455.174L344.828 292.117Z" fill="#9538F6"/>
<path d="M222.748 423.186C222.963 423.186 223.122 432.934 223.122 444.968C223.122 457.002 222.963 466.764 222.748 466.764C222.532 466.764 222.374 457.016 222.374 444.968C222.374 432.919 222.547 423.186 222.748 423.186Z" fill="#BDBDBD"/>
<path d="M308.958 310.55L338.447 295.382L355.383 276.159L434.331 270.969L456.113 287.575L510.144 303.707L498.973 451.451L509.871 616.823L288.168 617.082V455.621L308.958 310.55Z" fill="#9538F6"/>
<path d="M287.838 402.121C288.04 402.121 288.284 444.765 288.356 497.359C288.428 549.952 288.356 592.61 288.14 592.61C287.925 592.61 287.695 549.981 287.608 497.359C287.522 444.736 287.652 402.121 287.838 402.121Z" fill="#263238"/>
<path d="M400.834 423.213C400.46 423.238 400.086 423.238 399.712 423.213L396.506 423.098L384.702 422.551H384.443V422.292C384.63 412.976 384.889 400.41 385.177 386.564C385.55 372.273 385.881 359.333 386.126 349.872C386.284 345.243 386.413 341.476 386.514 338.758C386.571 337.503 386.614 336.496 386.643 335.739C386.652 335.387 386.686 335.037 386.744 334.689C386.778 335.038 386.778 335.39 386.744 335.739V338.773C386.744 341.476 386.658 345.257 386.6 349.887C386.413 359.347 386.154 372.287 385.867 386.578C385.507 400.424 385.177 412.99 384.932 422.292L384.673 422.019L396.463 422.81L399.669 423.069C400.062 423.067 400.453 423.115 400.834 423.213Z" fill="#263238"/>
<path d="M396.432 355.048C396.82 354.992 397.217 355.057 397.567 355.235C398.572 355.641 399.408 356.376 399.94 357.32C400.362 358.015 400.619 358.799 400.689 359.609C400.758 360.42 400.64 361.236 400.342 361.993C399.957 362.9 399.265 363.644 398.387 364.092C397.456 364.57 396.41 364.774 395.368 364.681C394.329 364.599 393.334 364.23 392.492 363.617C391.694 363.03 391.129 362.18 390.896 361.216C390.728 360.422 390.745 359.599 390.944 358.811C391.143 358.024 391.52 357.292 392.046 356.673C392.735 355.834 393.679 355.243 394.735 354.991C395.109 354.873 395.511 354.873 395.885 354.991C395.885 355.063 395.483 354.991 394.807 355.264C393.87 355.59 393.053 356.192 392.463 356.989C392.024 357.555 391.715 358.21 391.559 358.908C391.402 359.607 391.402 360.331 391.558 361.03C391.864 361.829 392.391 362.526 393.077 363.039C393.762 363.552 394.579 363.861 395.433 363.931C396.286 364 397.142 363.826 397.901 363.43C398.661 363.034 399.293 362.431 399.724 361.691C399.989 361.027 400.105 360.314 400.062 359.6C400.02 358.887 399.821 358.192 399.48 357.564C399.024 356.685 398.319 355.96 397.452 355.48C396.82 355.163 396.417 355.12 396.432 355.048Z" fill="#263238"/>
<path d="M396.258 383.576C396.646 383.519 397.043 383.584 397.393 383.762C398.397 384.169 399.233 384.904 399.766 385.847C400.19 386.542 400.448 387.324 400.52 388.135C400.593 388.945 400.477 389.761 400.183 390.52C399.789 391.43 399.093 392.176 398.213 392.633C397.279 393.1 396.235 393.304 395.194 393.223C394.154 393.135 393.159 392.762 392.318 392.145C391.529 391.555 390.966 390.712 390.722 389.758C390.552 388.962 390.568 388.138 390.77 387.349C390.972 386.561 391.355 385.83 391.887 385.215C392.561 384.367 393.504 383.773 394.561 383.532C394.936 383.419 395.336 383.419 395.711 383.532C395.711 383.532 395.309 383.532 394.633 383.806C393.7 384.14 392.889 384.746 392.304 385.545C391.861 386.106 391.55 386.758 391.393 387.455C391.237 388.152 391.238 388.875 391.398 389.571C391.7 390.372 392.224 391.071 392.908 391.587C393.591 392.102 394.407 392.413 395.26 392.484C396.114 392.555 396.97 392.382 397.729 391.986C398.488 391.59 399.12 390.987 399.55 390.247C399.819 389.582 399.937 388.865 399.895 388.149C399.853 387.433 399.651 386.735 399.306 386.106C398.854 385.224 398.148 384.497 397.278 384.021C396.66 383.705 396.243 383.647 396.258 383.576Z" fill="#263238"/>
<g opacity="0.3">
<path d="M322.417 430.243C342.431 457.56 358.102 487.969 380.388 513.389C402.673 538.808 434.016 559.397 467.789 557.758C478.573 557.226 497.537 553.603 505.171 546.026L502.296 517.084C446.941 502.565 395.74 475.325 352.768 437.532C345.263 430.918 336.593 423.5 326.673 424.75" fill="black"/>
</g>
<path d="M333.129 195.643C345.429 195.643 355.4 184.97 355.4 171.805C355.4 158.639 345.429 147.967 333.129 147.967C320.829 147.967 310.858 158.639 310.858 171.805C310.858 184.97 320.829 195.643 333.129 195.643Z" fill="#9FF7B5"/>
<path d="M334.896 147.968C335.693 148.423 336.514 148.836 337.354 149.205C339.565 150.327 341.548 151.848 343.206 153.691C345.587 156.481 347.246 159.814 348.037 163.396C349.216 167.736 349.216 172.312 348.037 176.652C346.867 181.004 344.571 184.971 341.38 188.154C338.811 190.771 335.582 192.644 332.035 193.574C329.649 194.227 327.138 194.272 324.731 193.704C323.034 193.272 322.186 192.769 322.128 192.855C322.071 192.942 322.315 193.028 322.718 193.272C323.324 193.617 323.965 193.897 324.63 194.106C327.092 194.85 329.709 194.919 332.207 194.307C335.934 193.435 339.348 191.549 342.07 188.858C345.42 185.596 347.833 181.495 349.058 176.982C350.311 172.482 350.311 167.724 349.058 163.223C348.194 159.508 346.398 156.074 343.839 153.245C342.075 151.403 339.957 149.936 337.613 148.932C336.988 148.649 336.344 148.409 335.687 148.213C335.155 147.983 334.91 147.925 334.896 147.968Z" fill="#263238"/>
<path d="M352.45 184.17C352.579 184.17 352.781 183.724 352.709 182.962C352.583 181.945 352.081 181.011 351.301 180.346C350.522 179.68 349.521 179.331 348.496 179.368C347.72 179.368 347.303 179.684 347.346 179.814C347.389 179.943 349.157 179.9 350.61 181.151C352.062 182.401 352.162 184.17 352.45 184.17Z" fill="#263238"/>
<path d="M351.531 176.839C351.631 176.566 350.956 176.077 349.978 176.048C349 176.019 348.296 176.465 348.382 176.738C348.468 177.011 349.159 177.069 349.949 177.098C350.74 177.127 351.43 177.112 351.531 176.839Z" fill="#263238"/>
<path d="M351.515 157.14C351.658 156.881 350.336 156.191 348.754 156.809C347.173 157.427 346.669 158.822 346.943 158.922C347.216 159.023 347.935 158.247 349.142 157.801C350.35 157.355 351.428 157.427 351.515 157.14Z" fill="#263238"/>
<path d="M391.357 332.145C380.809 331.288 371.009 326.359 364.031 318.402C357.054 310.445 353.448 300.085 353.975 289.516C354.737 274.074 355.543 260.157 355.543 260.157C355.543 260.157 322.474 255.009 322.043 221.926C321.611 188.843 327.362 112.872 327.362 112.872C346.171 104.792 366.795 101.878 387.105 104.431C407.416 106.984 426.677 114.911 442.901 127.393L447.804 131.175L435.281 294.648C434.872 300 433.411 305.217 430.979 310.002C428.548 314.786 425.195 319.043 421.113 322.527C417.032 326.011 412.302 328.655 407.195 330.306C402.089 331.956 396.706 332.581 391.357 332.145Z" fill="#EDEDED"/>
<path d="M355.415 259.681C355.415 259.681 376.32 261.378 398.548 247.432C398.548 247.432 388.354 271.241 355.415 268.25V259.681Z" fill="#BDBDBD"/>
<path d="M380.085 201.582C379.266 201.582 379.251 207.06 374.521 210.971C369.791 214.882 363.925 214.292 363.882 215.054C363.81 215.399 365.19 216.133 367.677 216.205C370.912 216.244 374.057 215.144 376.563 213.099C378.964 211.134 380.51 208.315 380.876 205.234C381.077 202.862 380.473 201.554 380.085 201.582Z" fill="#263238"/>
<path d="M382.269 140.447C382.758 141.885 387.848 141.166 393.771 141.885C399.695 142.604 404.569 144.228 405.359 142.992C405.705 142.402 404.871 141.094 402.93 139.757C400.337 138.111 397.401 137.081 394.348 136.744C391.296 136.408 388.206 136.774 385.317 137.816C383.146 138.693 382.053 139.786 382.269 140.447Z" fill="#263238"/>
<path d="M332.825 151.835C333.731 153.085 337.828 152.28 342.616 152.712C347.404 153.143 351.386 154.351 352.436 153.244C352.896 152.697 352.436 151.49 350.711 150.224C348.404 148.669 345.729 147.746 342.954 147.547C340.179 147.347 337.401 147.879 334.895 149.089C333.098 150.109 332.408 151.231 332.825 151.835Z" fill="#263238"/>
<path d="M443.704 165.479C444.265 165.235 466.435 158.765 465.716 181.381C464.998 203.997 442.425 198.634 442.41 197.958C442.396 197.282 443.704 165.479 443.704 165.479Z" fill="#EDEDED"/>
<path d="M449.601 189.562C449.702 189.562 449.99 189.85 450.637 190.18C451.541 190.591 452.568 190.648 453.512 190.338C455.928 189.533 458.055 185.809 458.3 181.712C458.423 179.774 458.109 177.833 457.38 176.033C457.193 175.317 456.833 174.658 456.331 174.114C455.83 173.57 455.202 173.157 454.504 172.913C454.053 172.777 453.569 172.803 453.136 172.987C452.702 173.17 452.347 173.5 452.132 173.919C451.815 174.537 451.945 174.998 451.815 175.026C451.686 175.055 451.355 174.638 451.557 173.704C451.691 173.13 452.022 172.622 452.491 172.266C453.128 171.811 453.918 171.625 454.691 171.748C455.647 171.966 456.528 172.432 457.248 173.098C457.967 173.764 458.498 174.608 458.789 175.544C459.681 177.538 460.081 179.718 459.953 181.899C459.651 186.457 457.193 190.64 453.886 191.489C453.273 191.645 452.634 191.662 452.014 191.537C451.394 191.413 450.81 191.151 450.306 190.77C449.616 190.123 449.515 189.605 449.601 189.562Z" fill="#BDBDBD"/>
<path d="M314.682 84.2893C317.095 79.5246 320.568 75.3758 324.833 72.1611C329.098 68.9463 334.043 66.7509 339.288 65.7433C344.533 64.7356 349.939 64.9424 355.092 66.3478C360.245 67.7532 365.008 70.3199 369.015 73.8511C371.569 68.8765 375.283 64.5894 379.842 61.3513C384.401 58.1133 389.672 56.0195 395.211 55.2464C395.901 55.1602 396.649 55.0883 397.296 55.0452C411.975 54.0962 424.915 64.7357 427.906 79.1421L429.53 86.9923C429.53 86.9923 457.495 96.4671 463.965 101.701C467.548 104.575 470.269 108.382 471.828 112.703C473.388 117.023 473.726 121.691 472.804 126.191C471.883 130.691 469.738 134.85 466.606 138.21C463.473 141.57 459.475 144.001 455.051 145.236C462.153 158.032 455.496 176.392 441.852 181.669L438.559 180.303C432.399 173.298 428.459 164.62 427.237 155.372C426.016 146.124 427.57 136.721 431.701 128.357C431.299 128.357 430.925 128.357 430.522 128.357C424.823 131.519 418.157 132.464 411.803 131.01C405.45 129.556 399.858 125.805 396.102 120.478C391.517 123.675 386.116 125.498 380.532 125.735C374.947 125.972 369.411 124.612 364.572 121.815C363.165 120.759 361.547 120.018 359.827 119.644C357.743 119.428 355.773 120.507 353.904 121.427C348.929 123.857 343.351 125.452 337.887 124.647C335.322 124.329 332.878 123.373 330.778 121.866C328.678 120.359 326.99 118.349 325.867 116.021H325.479C319.11 114.871 313.977 109.421 312.237 103.181C310.677 96.7991 311.548 90.0642 314.682 84.2893Z" fill="#263238"/>
<path d="M460.441 164.401C460.441 164.401 474.359 97.5022 435.726 86.9922H429.529C429.529 86.9922 457.149 108.472 447.775 162.374" fill="#9FF7B5"/>
<path d="M449.574 208.008C461.874 208.008 471.845 197.336 471.845 184.17C471.845 171.005 461.874 160.332 449.574 160.332C437.274 160.332 427.303 171.005 427.303 184.17C427.303 197.336 437.274 208.008 449.574 208.008Z" fill="#9FF7B5"/>
<path d="M447.82 160.332C447.82 160.332 447.562 160.332 447.116 160.49C446.451 160.673 445.802 160.909 445.175 161.195C442.835 162.206 440.719 163.672 438.949 165.508C436.396 168.341 434.601 171.773 433.73 175.486C432.488 179.992 432.479 184.749 433.706 189.259C434.933 193.769 437.35 197.866 440.703 201.121C443.423 203.809 446.831 205.694 450.552 206.571C453.055 207.185 455.677 207.115 458.144 206.369C458.804 206.16 459.441 205.881 460.041 205.535C460.458 205.291 460.66 205.162 460.631 205.118C460.602 205.075 459.725 205.535 458.028 205.967C455.622 206.542 453.109 206.498 450.725 205.837C447.182 204.904 443.955 203.037 441.379 200.431C438.197 197.242 435.902 193.277 434.722 188.929C433.55 184.588 433.55 180.014 434.722 175.673C435.514 172.091 437.173 168.759 439.553 165.968C441.211 164.125 443.195 162.604 445.405 161.482C446.915 160.749 447.849 160.433 447.82 160.332Z" fill="#263238"/>
<path d="M430.246 196.536C430.548 196.536 430.634 194.768 432.101 193.517C433.567 192.266 435.321 192.467 435.364 192.18C435.408 191.892 434.976 191.791 434.214 191.734C433.192 191.706 432.194 192.054 431.411 192.712C430.623 193.375 430.11 194.308 429.973 195.328C429.93 196.09 430.174 196.55 430.246 196.536Z" fill="#263238"/>
<path d="M431.183 189.204C431.283 189.477 431.973 189.492 432.764 189.463C433.555 189.434 434.202 189.391 434.317 189.104C434.432 188.816 433.699 188.385 432.735 188.413C431.772 188.442 431.082 188.931 431.183 189.204Z" fill="#263238"/>
<path d="M431.186 169.505C431.286 169.792 432.379 169.677 433.572 170.166C434.766 170.655 435.499 171.446 435.772 171.287C436.045 171.129 435.528 169.85 433.946 169.174C432.365 168.498 431.056 169.246 431.186 169.505Z" fill="#263238"/>
<path d="M405.389 62.1337C405.389 62.3063 408.12 62.2488 412.462 62.4644C414.998 62.5922 417.513 62.9825 419.968 63.629C422.939 64.4065 425.68 65.8857 427.962 67.9423C430.247 69.9689 431.715 72.7604 432.088 75.7925C432.289 78.2886 431.895 80.7968 430.938 83.1107C429.313 87.1077 427.501 89.2212 427.688 89.3506C428.186 88.9399 428.618 88.455 428.968 87.9129C430.015 86.5161 430.902 85.0066 431.613 83.4127C432.727 81.0037 433.221 78.3547 433.051 75.7062C432.722 72.4273 431.184 69.3881 428.738 67.1803C426.336 65.0036 423.431 63.4573 420.284 62.6801C417.755 62.0674 415.165 61.7442 412.563 61.7168C410.349 61.7168 408.566 61.7168 407.344 61.875C406.683 61.8585 406.023 61.9458 405.389 62.1337Z" fill="#263238"/>
<path d="M433.048 60.9121C432.904 61.0271 433.925 62.3499 434.874 64.9666C436.151 68.2637 436.495 71.8486 435.868 75.3283C435.242 78.8079 433.669 82.0478 431.323 84.6927C429.54 86.7487 428.088 87.6977 428.189 87.8414C429.611 87.2765 430.874 86.3734 431.869 85.2103C434.496 82.5673 436.256 79.1877 436.916 75.5205C437.576 71.8532 437.104 68.072 435.564 64.6791C435.034 63.2428 434.172 61.9521 433.048 60.9121Z" fill="#263238"/>
<path d="M335.099 88.9044C335.103 89.1741 335.152 89.4412 335.242 89.6952C335.426 90.4334 335.671 91.1548 335.976 91.8519C337.373 95.1426 339.634 97.9944 342.519 100.105C345.404 102.216 348.807 103.508 352.366 103.843C357.743 104.302 363.086 102.635 367.247 99.1988L366.471 99.0982C367.46 100.492 368.587 101.783 369.835 102.951C374.251 106.99 380.012 109.24 385.995 109.263C390.034 109.2 393.989 108.095 397.475 106.055C400.961 104.014 403.861 101.108 405.894 97.6173C406.335 96.863 406.715 96.0745 407.03 95.2594C407.165 94.9825 407.257 94.6868 407.303 94.3823C407.202 94.3823 406.742 95.5038 405.549 97.4016C403.838 100.052 401.626 102.343 399.036 104.145C395.223 106.844 390.667 108.296 385.995 108.3C380.278 108.228 374.785 106.064 370.554 102.218C369.355 101.116 368.28 99.887 367.348 98.5518L367.003 98.0774L366.571 98.4512C362.622 101.728 357.556 103.347 352.438 102.966C348.32 102.651 344.418 101 341.324 98.2643C339.238 96.4492 337.537 94.2346 336.321 91.7512C335.472 89.9396 335.199 88.8901 335.099 88.9044Z" fill="#455A64"/>
<path d="M332.867 112.154C332.781 112.24 333.658 113.462 335.656 114.842C338.287 116.626 341.374 117.618 344.551 117.703C347.729 117.787 350.864 116.959 353.585 115.317C354.74 114.727 355.729 113.857 356.461 112.786C356.346 112.657 355.224 113.62 353.168 114.655C350.501 116.037 347.528 116.719 344.526 116.639C341.523 116.558 338.59 115.717 336.001 114.195C334.046 113.045 332.982 112.038 332.867 112.154Z" fill="#455A64"/>
<path d="M333.156 166.917C333.745 167.535 337.325 164.889 342.429 164.904C347.533 164.918 351.243 167.463 351.803 166.83C352.077 166.557 351.473 165.393 349.848 164.257C347.647 162.726 345.024 161.917 342.343 161.942C339.693 161.931 337.109 162.768 334.967 164.329C333.4 165.551 332.868 166.672 333.156 166.917Z" fill="#263238"/>
<path d="M387.822 166.644C387.809 167.877 388.279 169.065 389.13 169.957C389.982 170.848 391.147 171.372 392.379 171.417C392.985 171.464 393.595 171.389 394.171 171.196C394.748 171.003 395.28 170.696 395.735 170.294C396.191 169.892 396.562 169.402 396.825 168.854C397.088 168.306 397.239 167.711 397.268 167.104C397.28 165.867 396.809 164.675 395.955 163.781C395.101 162.887 393.931 162.361 392.696 162.316C392.089 162.269 391.479 162.345 390.903 162.539C390.326 162.733 389.794 163.041 389.34 163.445C388.885 163.849 388.516 164.34 388.255 164.89C387.994 165.44 387.847 166.036 387.822 166.644Z" fill="#263238"/>
<path d="M383.219 161.081C383.809 161.699 387.403 159.039 392.493 159.053C397.582 159.068 401.321 161.627 401.867 160.994C402.14 160.721 401.551 159.557 399.912 158.421C397.71 156.89 395.088 156.081 392.406 156.106C389.757 156.097 387.173 156.933 385.031 158.493C383.464 159.729 382.932 160.808 383.219 161.081Z" fill="#263238"/>
<path d="M364.746 198.851C364.746 198.563 361.597 198.017 356.464 197.413C355.17 197.284 353.934 197.025 353.718 196.134C353.607 194.791 353.908 193.447 354.581 192.28L358.434 182.374C363.768 168.284 367.635 156.681 367.06 156.494C366.485 156.308 361.697 167.537 356.349 181.641C355.069 185.12 353.833 188.427 352.668 191.605C352.179 193.042 351.331 194.753 351.993 196.709C352.184 197.166 352.476 197.574 352.847 197.903C353.218 198.231 353.658 198.472 354.135 198.607C354.851 198.807 355.591 198.908 356.335 198.909C361.511 199.124 364.717 199.139 364.746 198.851Z" fill="#263238"/>
<path d="M354.593 276.907L384.887 320.299L387.633 331.671L392.535 320.299L439.435 274.865V318.444L404.411 339.507L384.887 341.621L355.384 330.55L346.872 312.851L354.593 276.907Z" fill="#9538F6"/>
<path d="M383.665 320.328C383.665 320.4 382.874 320.328 381.451 320.63C379.442 321.105 377.559 322.007 375.93 323.275C371.688 326.424 367.303 332.779 364.154 340.773L363.867 341.478L363.507 340.816L358.145 331.284C352.667 321.435 347.721 312.593 344.083 305.965C342.344 302.787 340.935 300.214 339.899 298.258C339.439 297.396 339.08 296.706 338.792 296.145C338.646 295.906 338.53 295.65 338.447 295.383C338.638 295.588 338.798 295.821 338.922 296.073C339.238 296.605 339.655 297.281 340.144 298.115C341.237 299.998 342.717 302.572 344.543 305.706L358.792 330.924C360.661 334.246 362.458 337.466 364.126 340.471H363.479C366.714 332.376 371.228 326.007 375.657 322.858C377.356 321.591 379.324 320.731 381.408 320.342C381.964 320.261 382.527 320.227 383.09 320.242C383.478 320.285 383.665 320.299 383.665 320.328Z" fill="#263238"/>
<path d="M453.021 287.691C452.875 287.994 452.702 288.283 452.503 288.554C452.101 289.158 451.583 289.992 450.922 290.941C449.484 292.997 447.457 295.944 444.797 299.567C437.877 308.868 430.457 317.786 422.569 326.281C416.545 332.794 410.607 338.617 405.431 343.419L405.086 343.764L404.913 343.304C402.813 337.672 400.24 332.227 397.221 327.029C396.129 325.145 395.208 323.693 394.59 322.715C394.246 322.226 393.938 321.712 393.67 321.177C393.783 321.286 393.884 321.406 393.972 321.536L394.763 322.615C395.438 323.564 396.402 324.987 397.538 326.928C400.698 332.078 403.37 337.512 405.517 343.16L405 343.031C410.118 338.186 416.013 332.348 422.023 325.864C431.239 315.929 438.974 306.382 444.38 299.337C447.083 295.8 449.211 292.91 450.692 290.898L452.388 288.597C452.561 288.271 452.774 287.966 453.021 287.691Z" fill="#263238"/>
<g opacity="0.3">
<path d="M386.769 348.982C389.185 346.02 388.868 340.7 392.52 339.392C393.421 339.109 394.384 339.094 395.293 339.349C396.202 339.604 397.017 340.119 397.639 340.83C400.989 344.424 400.025 349.715 403.073 353.496C403.632 354.213 404.357 354.78 405.187 355.15C408.637 356.66 411.527 354 413.813 351.556C418.088 346.945 422.311 342.291 426.48 337.595C431.982 331.731 436.908 325.352 441.188 318.544C445.484 311.695 447.899 303.835 448.19 295.756C435.078 312.491 421.045 328.824 405.287 343.073C403.462 336.488 399.465 329.888 395.813 324.166C395.295 323.361 393.512 320.629 392.606 320.284C392.146 320.097 393.066 320.083 392.606 320.284L387.704 331.657C387.704 331.657 385.504 322.412 384.957 320.284C382.996 320.166 381.033 320.48 379.206 321.204C377.776 321.871 376.421 322.691 375.166 323.648C369.714 327.591 365.959 333.453 364.656 340.053C367.69 339.349 369.904 336.847 372.248 334.806C374.591 332.764 377.797 330.995 380.687 332.146C383.577 333.296 384.785 336.948 385.001 340.154C385.216 343.36 384.842 346.753 386.438 349.543" fill="black"/>
</g>
<path d="M447.37 142.316L447.787 156.522L463.775 158.549L464.293 143.697L447.37 142.316Z" fill="#455A64"/>
<path d="M458.787 73.4629C458.988 73.4629 459.161 92.4414 459.161 115.848C459.161 139.255 458.988 158.233 458.787 158.233C458.586 158.233 458.413 139.255 458.413 115.848C458.413 92.4414 458.571 73.4629 458.787 73.4629Z" fill="#455A64"/>
<path d="M455.134 403.243C455.134 403.243 455.134 402.984 455.134 402.467C455.134 401.949 455.134 401.144 455.033 400.152C454.961 398.096 454.861 395.12 454.717 391.295C454.487 383.56 454.142 372.417 453.71 358.672C453.279 344.927 452.833 328.479 452.273 310.292C452.1 305.748 452.071 301.047 451.798 296.345C451.79 295.189 451.539 294.047 451.061 292.995C450.583 291.942 449.889 291.001 449.023 290.235C448.11 289.531 446.985 289.156 445.832 289.171C445.277 289.185 444.737 289.347 444.267 289.64C443.797 289.933 443.414 290.347 443.157 290.839C442.732 291.905 442.729 293.092 443.148 294.161C443.567 295.229 444.378 296.097 445.415 296.59C446.563 296.95 447.792 296.974 448.954 296.658C450.116 296.342 451.163 295.7 451.971 294.807C453.645 292.928 454.607 290.521 454.688 288.006C454.922 285.447 454.728 282.867 454.113 280.372C453.752 278.933 453.035 277.608 452.028 276.518C451.027 275.469 449.699 274.789 448.261 274.592C447.575 274.48 446.872 274.554 446.224 274.807C445.577 275.06 445.009 275.482 444.581 276.03C444.139 276.551 443.849 277.182 443.74 277.856C443.631 278.53 443.708 279.221 443.962 279.854C444.29 280.439 444.796 280.905 445.406 281.184C446.016 281.463 446.698 281.541 447.356 281.407C448.039 281.321 448.696 281.09 449.283 280.731C449.871 280.371 450.375 279.891 450.763 279.322C452.345 276.993 452.431 273.945 452.345 271.17C452.294 269.785 451.992 268.421 451.453 267.144C450.967 265.89 450.028 264.864 448.822 264.269C447.627 263.732 446.27 263.686 445.041 264.139C444.448 264.342 443.938 264.732 443.588 265.251C443.237 265.77 443.066 266.39 443.1 267.015C443.155 267.622 443.402 268.196 443.804 268.654C444.46 269.334 445.286 269.826 446.196 270.079C447.106 270.331 448.068 270.336 448.98 270.092C450.135 269.691 451.112 268.897 451.741 267.849C452.411 266.783 452.866 265.596 453.078 264.355C453.485 261.896 453.519 259.39 453.178 256.922C452.877 254.564 451.928 252.105 449.872 251.07C448.899 250.52 447.762 250.336 446.665 250.552C446.149 250.651 445.669 250.89 445.279 251.242C444.889 251.595 444.602 252.047 444.451 252.551C444.35 253.065 444.362 253.595 444.486 254.104C444.61 254.613 444.844 255.089 445.17 255.498C445.774 256.353 446.636 256.993 447.629 257.324C448.107 257.465 448.609 257.506 449.104 257.445C449.599 257.383 450.075 257.219 450.504 256.965C451.376 256.472 452.094 255.745 452.575 254.866C453.527 253.144 453.794 251.126 453.322 249.215C452.822 247.418 451.906 245.763 450.648 244.384C449.469 243.074 448.186 241.862 446.809 240.761L446.709 240.689V240.574C447.341 230.51 447.844 222.66 448.146 217.211C448.333 214.536 448.463 212.466 448.563 211.028C448.563 210.338 448.664 209.821 448.693 209.432C448.721 209.044 448.693 208.9 448.693 208.9C448.702 209.078 448.702 209.255 448.693 209.432C448.693 209.821 448.693 210.353 448.693 211.028C448.693 212.466 448.52 214.551 448.391 217.225C448.089 222.674 447.657 230.596 447.125 240.603L447.039 240.416C448.446 241.518 449.755 242.74 450.95 244.068C452.29 245.491 453.276 247.21 453.825 249.086C454.345 251.129 454.068 253.293 453.049 255.139C452.52 256.114 451.728 256.921 450.763 257.468C450.267 257.76 449.716 257.947 449.144 258.016C448.573 258.085 447.993 258.036 447.442 257.871C446.318 257.514 445.339 256.803 444.653 255.843C444.278 255.363 444.012 254.807 443.873 254.214C443.734 253.62 443.725 253.004 443.847 252.407C444.023 251.795 444.362 251.243 444.828 250.81C445.294 250.376 445.87 250.079 446.493 249.949C447.734 249.698 449.023 249.897 450.13 250.509C451.259 251.117 452.169 252.062 452.733 253.212C453.288 254.352 453.647 255.577 453.797 256.835C454.141 259.376 454.112 261.953 453.71 264.484C453.473 265.806 452.985 267.07 452.273 268.208C451.907 268.79 451.456 269.313 450.936 269.761C450.407 270.243 449.771 270.593 449.081 270.782C448.043 271.068 446.947 271.068 445.909 270.782C444.872 270.496 443.931 269.934 443.186 269.157C442.686 268.58 442.379 267.861 442.309 267.101C442.274 266.337 442.486 265.582 442.914 264.948C443.341 264.314 443.96 263.834 444.681 263.579C446.081 263.06 447.628 263.107 448.995 263.708C450.352 264.372 451.417 265.514 451.985 266.914C452.566 268.281 452.892 269.743 452.948 271.227C453.027 272.691 452.969 274.159 452.776 275.613C452.591 277.125 452.065 278.575 451.237 279.854C450.79 280.504 450.21 281.053 449.536 281.464C448.862 281.875 448.11 282.14 447.327 282.241C446.516 282.395 445.678 282.288 444.932 281.937C444.186 281.586 443.57 281.008 443.172 280.285C442.952 279.699 442.85 279.076 442.873 278.45C442.896 277.825 443.042 277.21 443.304 276.642C443.567 276.073 443.939 275.563 444.4 275.139C444.861 274.716 445.401 274.388 445.99 274.175C446.76 273.886 447.589 273.788 448.405 273.887C450.012 274.11 451.497 274.87 452.618 276.044C453.71 277.218 454.491 278.646 454.889 280.199C455.533 282.787 455.737 285.465 455.493 288.121C455.401 290.779 454.384 293.322 452.618 295.31C451.709 296.309 450.53 297.024 449.224 297.368C447.918 297.713 446.54 297.672 445.256 297.251C444.019 296.682 443.052 295.655 442.558 294.386C442.065 293.117 442.083 291.706 442.611 290.45C442.927 289.841 443.4 289.328 443.982 288.964C444.563 288.6 445.232 288.398 445.918 288.38C447.236 288.363 448.522 288.788 449.57 289.588C450.589 290.37 451.37 291.42 451.827 292.621C452.256 293.778 452.527 294.987 452.632 296.216C452.905 301.018 452.92 305.662 453.063 310.22C453.538 328.422 453.955 344.812 454.314 358.6C454.674 372.389 454.904 383.488 455.091 391.223C455.163 395.048 455.22 398.038 455.263 400.094C455.263 401.086 455.263 401.848 455.263 402.409C455.263 402.97 455.134 403.243 455.134 403.243Z" fill="#455A64"/>
<path d="M446.709 207.822V216.204H450.864L451.482 208.024L446.709 207.822Z" fill="#9FF7B5"/>
<path d="M238.955 200.059C238.812 200.059 239.042 197.801 238.84 194.207C238.74 192.113 238.283 190.051 237.489 188.111C236.496 185.764 234.737 183.823 232.5 182.604C230.241 181.403 227.738 180.735 225.182 180.649C223.078 180.59 220.973 180.739 218.899 181.094C215.347 181.713 213.147 182.259 213.147 182.13C213.606 181.904 214.088 181.731 214.585 181.612C215.563 181.339 216.972 180.936 218.769 180.577C220.872 180.132 223.018 179.925 225.167 179.959C227.843 180.016 230.467 180.701 232.83 181.957C235.206 183.257 237.063 185.333 238.093 187.838C238.876 189.862 239.294 192.008 239.329 194.178C239.372 195.618 239.32 197.059 239.171 198.491C239.16 199.02 239.088 199.546 238.955 200.059Z" fill="#263238"/>
<path d="M294.467 233.529L264.202 234.593L174.442 261.523L240.479 291.299L251.578 326.394L286.286 312.908L317.917 298.531L318.607 263.809C318.372 259.356 317.111 255.018 314.924 251.133C312.737 247.247 309.682 243.919 305.998 241.408L294.467 233.529Z" fill="#455A64"/>
<path d="M204.694 179.741L212.43 179.051C212.84 179.018 213.254 179.066 213.646 179.192C214.038 179.319 214.401 179.521 214.715 179.788C215.029 180.056 215.287 180.382 215.475 180.749C215.662 181.116 215.776 181.516 215.808 181.927C215.842 182.338 215.794 182.751 215.667 183.143C215.541 183.535 215.338 183.899 215.071 184.213C214.804 184.526 214.478 184.784 214.111 184.972C213.744 185.16 213.344 185.273 212.933 185.306L206.247 185.895L204.694 179.741Z" fill="#455A64"/>
<path d="M149.004 194.236C149.363 191.806 149.004 199.095 149.004 201.338C149.013 202.351 149.225 203.351 149.627 204.28C150.029 205.209 150.613 206.049 151.345 206.748C152.076 207.448 152.941 207.994 153.887 208.354C154.834 208.713 155.842 208.88 156.854 208.843L166.775 208.47L174.467 201.497H159.528V193.689L149.004 194.236Z" fill="#455A64"/>
<path d="M214.165 257.411C214.165 257.411 221.828 250.869 224.905 250.524C227.982 250.179 247.651 250.337 247.651 250.337L260.59 259.179L291.905 316.69L304.155 332.347L270.123 372.518L247.651 353.827L221.167 345.201L241.396 345.474C245.48 339.004 252.726 329.141 252.726 329.141L257.715 300.386L257.945 288.955L251.331 270.983L241.195 260.214L214.165 257.411Z" fill="#EDEDED"/>
<path d="M178.741 259.136L188.144 245.98L224.318 233.529C224.318 233.529 229.954 240.344 221.443 246.34H218.567C218.567 246.34 222.622 255.326 211.177 252.795C210.113 252.565 199.546 254.434 199.546 254.434L193.91 259.136H178.741Z" fill="#EDEDED"/>
<path d="M142.251 259.164L131.324 269.631L132.474 329.557L142.266 340.369L241.241 346.364L254.124 329.629L251.579 277.035L248.171 268.423L238.668 261.939L142.251 259.164Z" fill="#455A64"/>
<path d="M233.563 266.123L234.166 266.655L235.949 268.265L242.836 274.75C242.836 287.143 242.922 308.307 242.994 335.251V335.366V335.452L237.646 341.778L237.545 341.893H237.387L146.175 337.839L143.947 337.738H143.789L143.688 337.623L135.248 327.947L135.162 327.832V327.702C134.903 308.178 134.644 289.645 134.429 272.751V272.607L134.544 272.507C137.707 269.344 140.769 266.296 143.731 263.319L143.832 263.219H143.975L208.919 265.289L227.15 265.936L231.938 266.123H233.16H233.577H231.895L227.078 266.022L208.819 265.562L143.975 263.765L144.206 263.679C141.229 266.641 138.181 269.703 135.018 272.881L135.119 272.622C135.363 289.515 135.636 308.048 135.924 327.573L135.823 327.343L144.249 337.105L143.99 336.976L146.204 337.077L237.416 341.246L237.157 341.347L242.534 335.049V335.236C242.534 308.293 242.664 287.129 242.692 274.735V274.836L235.92 268.395L234.181 266.713C233.749 266.396 233.563 266.123 233.563 266.123Z" fill="#263238"/>
<path d="M139.36 270.006L142.236 330.507L240.45 336.057L238.911 272.694L139.36 270.006Z" fill="#263238"/>
<path d="M169.799 276.33L171.524 315.768L236.238 318.442V277.667L169.799 276.33Z" fill="#455A64"/>
<path d="M236.644 298.114C238.591 286.058 230.395 274.706 218.338 272.76C206.282 270.814 194.93 279.01 192.984 291.066C191.038 303.123 199.234 314.474 211.29 316.42C223.347 318.367 234.698 310.171 236.644 298.114Z" fill="#263238"/>
<path d="M236.236 305.978C234.427 308.495 232.109 310.604 229.433 312.168C226.756 313.732 223.781 314.715 220.7 315.055C217.619 315.394 214.5 315.082 211.548 314.139C208.595 313.195 205.873 311.642 203.56 309.578C201.247 307.515 199.393 304.989 198.119 302.163C196.845 299.337 196.179 296.275 196.165 293.175C196.151 290.075 196.789 287.007 198.038 284.17C199.286 281.332 201.117 278.789 203.412 276.705L234.036 277.625C234.856 278.4 235.593 279.257 236.236 280.184V305.978Z" fill="#FAFAFA"/>
<path d="M142.235 330.55C142.149 330.363 148.633 326.912 156.714 322.829C164.794 318.746 171.436 315.64 171.522 315.77C171.609 315.899 165.139 319.407 157.044 323.49C148.95 327.574 142.336 330.737 142.235 330.55Z" fill="#455A64"/>
<path d="M214.831 198.879L288.157 199.253V239.223L277.776 237.368L264.088 235.729V225.866L263.973 219.41L241.329 220.158L241.516 232.753L250.516 246.541L250.602 248.582L228.187 247.432L219.777 232.81C219.777 232.81 219.59 227.059 219.777 226.484L214.514 228.554C211.736 229.674 208.768 230.25 205.773 230.251H178.743C175.55 230.243 172.49 228.972 170.232 226.714C167.974 224.456 166.702 221.396 166.694 218.202V209.576C166.694 203.825 172.733 199.037 178.412 198.994L214.831 198.879Z" fill="#455A64"/>
<path d="M203.325 198.879H180.881C172.623 198.879 165.929 205.573 165.929 213.832V215.298C165.929 223.556 172.623 230.251 180.881 230.251H203.325C211.583 230.251 218.278 223.556 218.278 215.298V213.832C218.278 205.573 211.583 198.879 203.325 198.879Z" fill="#263238"/>
<path d="M203.313 210.482H177.907C175.994 210.482 174.442 212.034 174.442 213.947V214.177C174.442 216.091 175.994 217.642 177.907 217.642H203.313C205.226 217.642 206.778 216.091 206.778 214.177V213.947C206.778 212.034 205.226 210.482 203.313 210.482Z" fill="#455A64"/>
<path d="M224 198.922C224.468 199.021 224.916 199.201 225.323 199.454C226.493 200.046 227.557 200.828 228.471 201.769C229.825 203.193 230.812 204.925 231.347 206.815C232.003 209.112 232.237 211.509 232.037 213.889C231.635 216.275 230.54 218.49 228.888 220.258C227.588 221.692 226.11 222.954 224.489 224.011C223.408 224.725 222.279 225.364 221.11 225.923C220.696 226.157 220.25 226.332 219.787 226.441C219.787 226.311 221.556 225.449 224.187 223.565C225.719 222.471 227.123 221.208 228.371 219.798C229.883 218.105 230.88 216.015 231.246 213.774C231.426 211.494 231.222 209.2 230.642 206.988C230.165 205.186 229.279 203.518 228.054 202.114C226.83 200.897 225.469 199.826 224 198.922Z" fill="#263238"/>
<path d="M140.166 181.698L199.114 176.278C201.129 176.089 203.137 176.701 204.703 177.982C206.269 179.263 207.268 181.11 207.482 183.122C207.59 184.126 207.499 185.142 207.214 186.111C206.929 187.08 206.456 187.984 205.822 188.77C205.187 189.557 204.404 190.211 203.518 190.694C202.631 191.178 201.657 191.483 200.653 191.59L142.625 197.902L140.166 181.698Z" fill="#455A64"/>
<path d="M349.129 164.516H268.585V217.785H349.129V164.516Z" fill="#455A64"/>
<path d="M349.115 217.772C349.115 217.772 349.115 217.427 349.115 216.794C349.115 216.162 349.115 215.184 349.115 213.919C349.115 211.417 349.115 207.808 349.044 203.193C349.044 193.919 348.943 180.649 348.885 164.474L349.173 164.762L268.658 164.848C268.572 164.848 269.363 164.129 269.032 164.474V171.505C269.032 173.848 269.032 176.177 269.032 178.478V192.093C269.032 201.008 269.032 209.577 269.032 217.714L268.701 217.369L326.643 217.542L343.249 217.643H347.678H349.23C349.111 217.658 348.99 217.658 348.871 217.643H347.764H343.451L326.916 217.729L268.759 217.901H268.414V217.556C268.414 209.418 268.414 200.849 268.414 191.935V164.532C268.069 164.862 268.859 164.071 268.788 164.143L349.302 164.23H349.604V164.532C349.604 180.793 349.489 194.121 349.446 203.437C349.446 208.024 349.446 211.618 349.374 214.091C349.374 215.285 349.374 216.205 349.374 216.866C349.374 217.527 349.115 217.772 349.115 217.772Z" fill="#263238"/>
<path d="M175.692 194.35C174.406 194.746 173.08 195.002 171.739 195.112C169.28 195.472 165.858 195.86 162.091 196.234L152.444 197.125C151.111 197.322 149.764 197.399 148.418 197.355C149.712 196.968 151.041 196.713 152.386 196.593C154.845 196.248 158.252 195.86 162.019 195.486L171.681 194.581C173.01 194.402 174.351 194.325 175.692 194.35Z" fill="#263238"/>
<path d="M159.491 201.424C159.563 201.424 159.951 201.769 160.21 202.617C160.536 203.75 160.421 204.965 159.887 206.016C159.354 207.067 158.441 207.877 157.334 208.282C156.486 208.57 155.896 208.498 155.896 208.411C155.896 208.325 156.385 208.181 157.09 207.793C157.99 207.32 158.72 206.579 159.178 205.672C159.637 204.765 159.802 203.737 159.649 202.732C159.592 201.999 159.39 201.51 159.491 201.424Z" fill="#263238"/>
<path d="M205.528 189.089C205.442 189.089 205.873 188.499 206.29 187.522C206.832 186.254 207.111 184.889 207.109 183.51C207.11 182.144 206.694 180.809 205.916 179.686C205.298 178.809 204.852 178.248 204.938 178.248C205.025 178.248 205.571 178.564 206.376 179.413C207.374 180.554 207.917 182.023 207.9 183.539C207.924 185.048 207.546 186.536 206.808 187.852C206.189 188.758 205.585 189.161 205.528 189.089Z" fill="#263238"/>
<path d="M86.6946 181.654L129.152 177.729C132.62 177.407 136.081 178.406 138.845 180.524C141.609 182.643 143.472 185.727 144.061 189.159C144.381 191.007 144.322 192.901 143.887 194.725C143.452 196.549 142.651 198.265 141.532 199.77C140.413 201.275 139 202.536 137.378 203.478C135.757 204.42 133.961 205.022 132.099 205.248L89.7715 210.366C87.8953 210.602 85.9911 210.465 84.168 209.963C82.3448 209.462 80.6385 208.605 79.1467 207.444C77.655 206.282 76.407 204.837 75.4744 203.192C74.5418 201.547 73.9427 199.735 73.7116 197.858C73.4577 195.935 73.5955 193.98 74.1169 192.111C74.6382 190.243 75.5323 188.499 76.7453 186.985C77.9583 185.472 79.465 184.219 81.1749 183.303C82.8848 182.386 84.7624 181.826 86.6946 181.654Z" fill="#263238"/>
<path d="M94.1032 207.995C95.0216 206.925 95.8624 205.791 96.6193 204.602C98.189 201.629 98.8301 198.253 98.4596 194.911C97.9655 191.579 96.3168 188.526 93.8013 186.285C92.7362 185.386 91.5382 184.659 90.25 184.128C90.6383 184.118 91.0247 184.186 91.3858 184.329C92.3929 184.668 93.3288 185.189 94.1463 185.868C95.3625 186.865 96.4067 188.055 97.2375 189.39C98.2779 191.023 98.9501 192.863 99.2073 194.782C99.6078 198.28 98.8556 201.814 97.065 204.846C96.5203 205.745 95.8524 206.563 95.0809 207.276C94.7992 207.571 94.4684 207.814 94.1032 207.995Z" fill="#455A64"/>
<path d="M220.579 232.768C221.096 232.671 221.621 232.628 222.146 232.638L226.46 232.538L241.484 232.408H241.671L241.786 232.566L246.718 240.1L250.787 246.369L251.146 246.93H250.456L234.353 246.8L229.666 246.685C229.097 246.705 228.528 246.662 227.969 246.556C228.53 246.47 229.098 246.431 229.666 246.441L234.353 246.326L250.456 246.196L250.154 246.757L246.143 240.517C244.432 237.857 242.778 235.312 241.24 232.955L241.542 233.113L226.488 233.055L222.175 232.955C221.639 232.932 221.106 232.87 220.579 232.768Z" fill="#263238"/>
<path d="M288.053 234.954C284.197 235.324 280.322 235.449 276.45 235.328C272.574 235.449 268.694 235.324 264.833 234.954C268.694 234.584 272.574 234.459 276.45 234.58C280.322 234.459 284.197 234.584 288.053 234.954Z" fill="#263238"/>
<path d="M289.133 311.614C289.068 311.293 289.039 310.965 289.046 310.637C289.046 309.918 288.974 308.983 288.931 307.833C288.831 305.389 288.687 301.866 288.399 297.524C288.112 293.182 287.695 288.006 287.077 282.284C286.77 279.408 286.42 276.413 286.027 273.298C285.581 270.207 285.294 266.957 284.517 263.766C283.755 260.65 282.524 257.669 280.865 254.923C279.27 252.413 277.096 250.323 274.525 248.827C270.132 246.279 265.41 244.344 260.492 243.076C256.308 241.926 252.843 241.25 250.428 240.819L247.667 240.359C247.342 240.312 247.021 240.244 246.704 240.157C247.029 240.119 247.357 240.119 247.682 240.157C248.329 240.157 249.263 240.33 250.471 240.488C253.889 240.976 257.278 241.652 260.622 242.515C265.622 243.755 270.423 245.691 274.884 248.266C277.553 249.813 279.812 251.977 281.469 254.578C283.186 257.373 284.452 260.42 285.222 263.607C285.615 265.218 285.912 266.85 286.113 268.496C286.329 270.106 286.53 271.688 286.731 273.24C287.134 276.36 287.465 279.365 287.752 282.241C288.327 287.992 288.687 293.168 288.902 297.524C289.118 301.881 289.204 305.418 289.204 307.847C289.204 309.069 289.204 310.018 289.204 310.723C289.206 311.022 289.182 311.32 289.133 311.614Z" fill="#263238"/>
<path d="M299.342 306.998C299.32 306.687 299.32 306.375 299.342 306.064C299.342 305.359 299.342 304.468 299.241 303.361C299.169 300.917 299.054 297.538 298.939 293.411C298.661 282.491 297.811 271.592 296.395 260.76C295.922 257.717 294.95 254.773 293.519 252.047C292.263 249.472 290.554 247.144 288.472 245.174C286.528 243.442 284.35 241.99 282.003 240.861C279.956 239.862 277.837 239.021 275.662 238.345C272.501 237.363 269.278 236.595 266.015 236.045L263.355 235.585C263.042 235.554 262.734 235.492 262.435 235.398C262.745 235.36 263.059 235.36 263.369 235.398C263.987 235.398 264.908 235.556 266.072 235.714C269.366 236.153 272.621 236.85 275.806 237.799C278.02 238.445 280.178 239.267 282.261 240.257C284.678 241.372 286.924 242.824 288.933 244.571C291.092 246.581 292.865 248.968 294.166 251.616C295.668 254.407 296.693 257.429 297.2 260.559C298.58 271.466 299.295 282.446 299.342 293.44C299.428 297.638 299.428 301.046 299.414 303.39C299.414 304.511 299.414 305.402 299.414 306.093C299.427 306.396 299.403 306.701 299.342 306.998Z" fill="#263238"/>
<path d="M241.198 260.2C241.198 260.2 241.026 260.2 240.738 260.071C240.69 260.036 240.653 259.987 240.632 259.93C240.612 259.874 240.609 259.813 240.623 259.755C240.67 259.642 240.751 259.547 240.853 259.481C241.066 259.327 241.305 259.21 241.558 259.136C243.139 258.713 244.794 258.65 246.403 258.949C247.514 259.138 248.603 259.442 249.652 259.855C250.254 260.073 250.824 260.367 251.349 260.732C251.889 261.12 252.408 261.538 252.902 261.983C254.914 263.78 256.956 265.908 259.07 268.165C260.105 269.287 261.097 270.394 262.06 271.472C264.188 276.116 266.028 280.2 267.322 283.118L268.76 286.583C268.974 286.991 269.129 287.426 269.22 287.877C268.941 287.515 268.709 287.119 268.53 286.698L266.949 283.377C265.511 280.502 263.613 276.461 261.442 271.875V271.961L258.451 268.683C256.352 266.426 254.339 264.284 252.384 262.486C251.895 262.055 251.406 261.624 250.946 261.264C250.457 260.927 249.932 260.648 249.379 260.43C248.386 260.002 247.35 259.684 246.288 259.481C244.746 259.166 243.157 259.166 241.615 259.481C241.112 259.596 240.609 259.855 240.81 260.028C241.011 260.2 241.213 260.172 241.198 260.2Z" fill="#BDBDBD"/>
<path d="M261.787 329.384C261.787 329.6 259.631 329.226 257.1 329.729C254.57 330.233 252.787 331.311 252.614 331.167C253.765 329.984 255.288 329.232 256.928 329.039C258.538 328.585 260.257 328.707 261.787 329.384Z" fill="#BDBDBD"/>
<path d="M261.169 295.539C260.785 297.205 260.305 298.846 259.731 300.456C258.767 303.476 257.531 307.645 256.467 312.375C255.403 317.106 254.713 321.404 254.282 324.539C254.123 326.248 253.868 327.947 253.52 329.628C253.458 329.151 253.458 328.668 253.52 328.191C253.52 327.299 253.635 326.02 253.778 324.438C254.19 320.309 254.852 316.208 255.763 312.16C256.68 308.118 257.847 304.138 259.256 300.241C259.817 298.803 260.292 297.552 260.694 296.732C260.809 296.319 260.968 295.918 261.169 295.539Z" fill="#BDBDBD"/>
<path d="M522.54 494.512C533.064 489.336 536.788 476.957 535.336 465.685C533.898 454.039 522.065 444.234 511.469 439.201C500.873 434.169 489.054 432.415 477.394 431.164C470.795 430.446 463.965 429.899 457.697 432.07C451.428 434.241 445.864 439.82 445.835 446.448" fill="#9538F6"/>
<g opacity="0.3">
<path d="M522.539 494.512C533.063 489.336 536.787 476.957 535.335 465.685C533.897 454.039 522.064 444.234 511.468 439.201C500.872 434.169 489.053 432.415 477.393 431.164C470.794 430.446 463.964 429.899 457.696 432.07C451.427 434.241 445.863 439.82 445.834 446.448" fill="black"/>
</g>
<path d="M466.119 369.973L447.902 447.166L293.271 318.443L267.563 370.39L407.142 518.479C415.624 527.139 426.114 533.57 437.679 537.202C449.244 540.833 461.527 541.554 473.437 539.298C504.406 533.432 523.759 506.359 528.244 475.174L537.302 411.999L466.119 369.973Z" fill="#EDEDED"/>
<path d="M527.113 313.252L510.147 303.705C510.147 303.705 470.436 306.868 466.123 369.972L459.94 386.333L447.906 447.165C450.207 435.304 508.982 392.243 535.308 465.684L544.553 361.129C542.18 339.333 544.222 324.625 527.113 313.252Z" fill="#9538F6"/>
<path d="M460.655 363.043C460.761 363.305 460.828 363.581 460.857 363.863C460.943 364.409 461.115 365.214 461.202 366.264C461.547 369.217 461.634 372.195 461.46 375.163C461.144 382.697 458.93 392.948 455.149 403.775C453.179 409.166 451.008 414.17 449.326 418.828C447.769 422.917 446.58 427.137 445.774 431.437C445.255 434.335 445.091 437.285 445.286 440.222C445.487 442.293 445.717 443.443 445.631 443.457C445.541 443.189 445.469 442.915 445.415 442.638C445.232 441.85 445.093 441.053 444.998 440.251C444.683 437.286 444.77 434.293 445.257 431.351C445.995 426.998 447.141 422.723 448.679 418.584C450.332 413.897 452.489 408.879 454.43 403.53C458.197 392.762 460.468 382.597 460.914 375.135C461.143 372.192 461.143 369.235 460.914 366.292C460.756 364.208 460.598 363.057 460.655 363.043Z" fill="#263238"/>
<path d="M513.93 307.704C513.072 307.645 512.217 307.539 511.371 307.388C509.069 307.086 506.747 306.97 504.426 307.042C495.574 307.328 487.032 310.376 479.999 315.76C472.965 321.143 467.792 328.592 465.204 337.063C464.996 337.893 464.737 338.709 464.428 339.507C464.428 339.284 464.457 339.062 464.514 338.846C464.6 338.414 464.701 337.782 464.917 336.977C465.506 334.703 466.305 332.489 467.303 330.363C470.565 323.259 475.793 317.237 482.37 313.01C488.946 308.783 496.595 306.528 504.412 306.51C506.764 306.482 509.114 306.68 511.428 307.1C512.054 307.198 512.673 307.333 513.283 307.503C513.508 307.532 513.727 307.6 513.93 307.704Z" fill="#263238"/>
<path d="M535.247 472.587C535.169 472.175 535.131 471.756 535.132 471.336C535.132 470.905 535.132 470.402 535.031 469.827C535.018 469.138 534.956 468.451 534.844 467.771C534.348 463.412 533.245 459.143 531.566 455.09C529.1 449.071 525.503 443.58 520.97 438.915C518.287 436.199 515.312 433.788 512.099 431.726C508.617 429.551 504.867 427.84 500.942 426.636C496.996 425.473 492.906 424.873 488.793 424.853C484.964 424.79 481.141 425.185 477.406 426.032C474.02 426.788 470.72 427.886 467.557 429.31C464.821 430.591 462.212 432.126 459.764 433.897C456.207 436.46 453.098 439.593 450.563 443.171C450.13 443.706 449.746 444.279 449.413 444.881C449.111 445.385 448.852 445.816 448.622 446.175C448.424 446.546 448.193 446.897 447.932 447.225C448.092 446.839 448.279 446.464 448.492 446.104C448.708 445.73 448.938 445.284 449.226 444.766C449.538 444.14 449.899 443.54 450.304 442.969C452.78 439.292 455.873 436.072 459.448 433.451C461.898 431.621 464.523 430.036 467.284 428.721C470.478 427.25 473.817 426.117 477.248 425.342C481.015 424.452 484.879 424.032 488.75 424.091C492.926 424.101 497.08 424.706 501.086 425.889C505.079 427.112 508.893 428.857 512.43 431.079C515.69 433.196 518.704 435.669 521.416 438.455C525.974 443.206 529.568 448.797 531.998 454.917C533.648 459.028 534.684 463.359 535.074 467.771C535.163 468.457 535.206 469.149 535.204 469.841C535.204 470.431 535.204 470.934 535.204 471.365C535.248 471.771 535.263 472.179 535.247 472.587Z" fill="#263238"/>
<g opacity="0.3">
<path d="M439.435 440.093C442.224 419.964 447.601 404.896 459.276 388.189C455.192 407.729 450.649 425.154 445.833 445.412" fill="black"/>
</g>
<path d="M472.59 464.865C472.475 465.038 466.954 461.156 460.283 456.238C456.178 453.357 452.223 450.267 448.436 446.979C448.551 446.821 454.057 450.689 460.728 455.606C467.4 460.523 472.719 464.707 472.59 464.865Z" fill="#BDBDBD"/>
<path d="M623.573 617.182C623.573 617.398 483.966 617.556 311.793 617.556C139.621 617.556 0 617.398 0 617.182C0 616.967 139.564 616.809 311.793 616.809C484.023 616.809 623.573 616.938 623.573 617.182Z" fill="#263238"/>
</svg>
