<svg viewBox="0 0 600 400" fill="none" xmlns="http://www.w3.org/2000/svg">
<path d="M373.601 355.088C375.528 354.007 377.693 353.423 379.902 353.387C382.111 353.351 384.294 353.864 386.255 354.881C388.216 355.898 389.894 357.387 391.137 359.213C392.38 361.039 393.15 363.146 393.377 365.344C385.297 365.344 377.377 363.464 373.601 355.088Z" fill="#EBEBEB"/>
<path d="M383.009 346.808C385.726 347.7 388.622 347.902 391.436 347.396C394.251 346.89 396.895 345.692 399.131 343.91C401.367 342.127 403.125 339.817 404.246 337.186C405.367 334.555 405.816 331.687 405.553 328.84C395.289 330.856 385.657 335.24 383.009 346.808Z" fill="#EBEBEB"/>
<path d="M347.832 360.479C347.994 360.398 348.163 360.331 348.336 360.279L349.816 359.783C351.096 359.367 352.952 358.759 355.232 357.967C359.8 356.367 366.064 354.095 372.832 351.159C376.2 349.679 379.368 348.175 382.216 346.735C385.064 345.295 387.552 343.871 389.616 342.615C391.241 341.639 392.809 340.57 394.312 339.415C395.368 338.615 395.912 338.047 395.912 338.079C395.807 338.226 395.687 338.36 395.552 338.479C395.191 338.855 394.809 339.21 394.408 339.543C392.936 340.764 391.383 341.884 389.76 342.895C387.72 344.191 385.216 345.615 382.384 347.103C379.552 348.591 376.368 350.087 372.984 351.575C366.224 354.519 359.928 356.775 355.336 358.279C353.04 359.039 351.168 359.599 349.872 359.967L348.376 360.391C348.199 360.444 348.016 360.473 347.832 360.479Z" fill="#E0E0E0"/>
<path d="M384 359.792C384 359.856 383.024 359.2 381.416 358.328C379.316 357.201 377.097 356.31 374.8 355.672C372.497 355.047 370.13 354.684 367.744 354.592C365.92 354.52 364.776 354.592 364.776 354.528C365.037 354.452 365.305 354.409 365.576 354.4C366.302 354.323 367.031 354.288 367.76 354.296C372.615 354.317 377.378 355.62 381.568 358.072C382.2 358.438 382.809 358.842 383.392 359.28C383.619 359.42 383.824 359.593 384 359.792Z" fill="#E0E0E0"/>
<path d="M193.385 323.824C192.407 326.432 192.092 329.242 192.469 332.001C192.847 334.76 193.904 337.382 195.546 339.632C197.189 341.881 199.364 343.687 201.878 344.886C204.391 346.086 207.163 346.642 209.945 346.504C208.409 336.44 204.537 326.872 193.385 323.824Z" fill="#EBEBEB"/>
<path d="M191.809 318.881C191.873 318.881 192.145 319.985 192.729 321.737C193.487 324.021 194.437 326.237 195.569 328.361C196.715 330.477 198.034 332.494 199.513 334.393C200.657 335.849 201.433 336.697 201.385 336.745C201.16 336.593 200.955 336.413 200.777 336.209C200.401 335.841 199.889 335.289 199.289 334.609C196.142 330.883 193.812 326.539 192.449 321.857C192.193 320.961 192.009 320.257 191.921 319.713C191.839 319.443 191.801 319.162 191.809 318.881Z" fill="#E0E0E0"/>
<path d="M33.5127 121.951C31.9936 125.994 31.5045 130.351 32.0895 134.63C32.6745 138.909 34.3152 142.975 36.8637 146.462C39.4123 149.949 42.7884 152.746 46.6879 154.602C50.5874 156.459 54.8875 157.315 59.2007 157.095C56.8007 141.495 50.8247 126.695 33.5447 121.951" fill="#EBEBEB"/>
<path d="M31.0645 114.305C31.227 114.689 31.3529 115.088 31.4405 115.497C31.6485 116.297 31.9765 117.385 32.4165 118.753C33.5772 122.302 35.044 125.745 36.8005 129.041C38.5704 132.335 40.6263 135.467 42.9445 138.401C43.8405 139.521 44.5445 140.417 45.1125 141.017C45.4021 141.32 45.6695 141.643 45.9124 141.985C45.5827 141.728 45.2774 141.442 45.0005 141.129C44.4325 140.553 43.6485 139.689 42.7285 138.585C37.8974 132.793 34.2963 126.078 32.1445 118.849C31.7365 117.473 31.4485 116.337 31.2885 115.553C31.1844 115.142 31.1096 114.725 31.0645 114.305Z" fill="#E0E0E0"/>
<path d="M60.5441 281.184C58.373 282.93 56.6704 285.189 55.5897 287.757C54.5089 290.326 54.0839 293.122 54.3529 295.896C54.6219 298.669 55.5765 301.332 57.1307 303.644C58.6848 305.957 60.7898 307.847 63.2561 309.144C67.0561 299.696 68.5921 289.496 60.5441 281.184Z" fill="#EBEBEB"/>
<path d="M61.6967 276.129C61.7607 276.129 61.4327 277.257 61.0407 279.057C60.0049 283.769 59.8019 288.627 60.4407 293.409C60.6807 295.241 60.9207 296.369 60.8487 296.385C60.734 296.129 60.6508 295.861 60.6007 295.585C60.4647 295.081 60.3047 294.345 60.1447 293.433C59.343 288.622 59.5501 283.696 60.7527 278.969C60.9847 278.065 61.2087 277.369 61.3847 276.857C61.4604 276.603 61.5651 276.359 61.6967 276.129Z" fill="#E0E0E0"/>
<path d="M209.009 78.896C211.502 80.1375 214.265 80.7395 217.049 80.6478C219.833 80.5562 222.551 79.7738 224.957 78.371C227.364 76.9683 229.384 74.9891 230.835 72.6118C232.287 70.2344 233.124 67.5335 233.273 64.752C223.097 65.24 213.193 68.112 209.009 78.896Z" fill="#EBEBEB"/>
<path d="M203.929 79.9995C203.929 79.9355 205.065 79.7755 206.865 79.3755C211.577 78.3457 216.074 76.5021 220.153 73.9275C221.753 72.9355 222.641 72.2555 222.681 72.3275C222.511 72.5394 222.312 72.7254 222.089 72.8795C221.689 73.2155 221.081 73.6795 220.313 74.1915C216.283 76.9353 211.724 78.8072 206.929 79.6875C206.009 79.8555 205.265 79.9515 204.745 79.9995C204.474 80.0361 204.199 80.0361 203.929 79.9995Z" fill="#E0E0E0"/>
<path d="M188.273 77.4481C191.864 76.6773 195.208 75.0254 198.002 72.6412C200.797 70.2569 202.954 67.2152 204.281 63.7899C205.608 60.3645 206.062 56.663 205.602 53.0185C205.143 49.374 203.784 45.901 201.649 42.9121C191.569 51.7841 183.713 62.9121 188.273 77.4481Z" fill="#EBEBEB"/>
<path d="M183.912 82.7126C184.11 82.4254 184.335 82.1575 184.584 81.9126C185.04 81.4086 185.688 80.6566 186.456 79.7126C190.49 74.7844 193.614 69.1767 195.68 63.1526C196.08 62.0006 196.376 61.0566 196.568 60.4006C196.648 60.0538 196.764 59.7161 196.912 59.3926C196.888 59.748 196.823 60.0996 196.72 60.4406C196.584 61.1126 196.32 62.0406 195.92 63.2406C194.001 69.3684 190.846 75.0373 186.648 79.8966C185.848 80.8246 185.16 81.5526 184.664 82.0246C184.438 82.2794 184.186 82.51 183.912 82.7126Z" fill="#E0E0E0"/>
<path d="M253.896 351.496C254.655 352.99 255.773 354.273 257.15 355.229C258.527 356.184 260.12 356.783 261.786 356.971C263.451 357.159 265.137 356.93 266.693 356.306C268.248 355.681 269.624 354.68 270.696 353.392C265.608 349.968 259.784 347.792 253.896 351.496Z" fill="#EBEBEB"/>
<path d="M251.064 350.184C252.936 351.013 254.86 351.718 256.824 352.296C258.823 352.737 260.849 353.042 262.888 353.208C262.293 353.339 261.68 353.376 261.072 353.32C258.127 353.219 255.239 352.48 252.608 351.152C252.048 350.908 251.528 350.582 251.064 350.184Z" fill="#E0E0E0"/>
<path d="M328.057 64.2642C329.089 65.587 330.434 66.6321 331.971 67.3053C333.508 67.9785 335.188 68.2587 336.861 68.1206C338.533 67.9825 340.144 67.4305 341.55 66.5142C342.956 65.598 344.111 64.3464 344.913 62.8722C339.257 60.4722 333.129 59.4882 328.057 64.2642Z" fill="#EBEBEB"/>
<path d="M325.024 63.5273C328.999 64.5678 333.143 64.799 337.208 64.2073C336.647 64.444 336.054 64.5976 335.448 64.6633C332.538 65.1374 329.56 64.9708 326.72 64.1753C326.126 64.0463 325.554 63.8278 325.024 63.5273Z" fill="#E0E0E0"/>
<path d="M520.248 88.8716C522.932 89.61 525.757 89.6701 528.469 89.0465C531.182 88.4229 533.697 87.1351 535.789 85.2988C537.881 83.4625 539.483 81.1353 540.453 78.5263C541.423 75.9173 541.729 73.1082 541.344 70.3516C531.456 72.7516 522.288 77.4956 520.248 88.8716Z" fill="#EBEBEB"/>
<path d="M515.465 90.8879C515.465 90.8239 516.529 90.4479 518.225 89.7119C522.653 87.8004 526.714 85.1311 530.225 81.8239C531.577 80.5519 532.345 79.7039 532.401 79.7519C532.27 79.988 532.109 80.2059 531.921 80.3999C531.593 80.8079 531.121 81.3679 530.433 81.9999C527 85.4622 522.883 88.1705 518.345 89.9519C517.481 90.2879 516.745 90.5359 516.265 90.6719C516.008 90.7771 515.74 90.8497 515.465 90.8879Z" fill="#E0E0E0"/>
<path d="M539.201 332.705C543.921 331.612 548.296 329.363 551.932 326.161C555.568 322.958 558.351 318.902 560.031 314.358C561.711 309.813 562.235 304.922 561.557 300.125C560.879 295.327 559.019 290.774 556.145 286.873C543.001 298.785 532.873 313.601 539.201 332.705Z" fill="#EBEBEB"/>
<path d="M533.528 339.744C533.801 339.36 534.1 338.996 534.424 338.656C535.024 337.984 535.864 336.984 536.864 335.728C537.864 334.472 539.016 332.928 540.208 331.168C541.4 329.408 542.608 327.4 543.784 325.24C544.96 323.08 545.92 320.952 546.744 318.984C547.568 317.016 548.216 315.216 548.704 313.68C549.192 312.144 549.56 310.896 549.792 310.024C549.893 309.565 550.032 309.115 550.208 308.68C550.157 309.147 550.071 309.609 549.952 310.064C549.768 310.952 549.44 312.216 548.984 313.768C548.528 315.32 547.896 317.144 547.104 319.136C546.312 321.128 545.312 323.256 544.152 325.44C543.045 327.48 541.835 329.464 540.528 331.384C539.304 333.144 538.128 334.672 537.096 335.912C536.064 337.152 535.176 338.128 534.544 338.768C534.232 339.119 533.892 339.446 533.528 339.744Z" fill="#E0E0E0"/>
<path d="M430.576 231.84C425.528 203.64 401.312 179.04 372.76 176.688C357.2 175.424 341.56 180.328 326.064 178.456C312.93 176.816 300.845 170.445 292.072 160.536C279.272 145.976 274.944 125.264 261.392 111.408C242.72 92.2956 210.136 91.9996 187.416 106.056C164.696 120.112 150.96 145.48 144.672 171.44L144.424 179.336C143.056 206.264 150.144 237.6 165.768 261.6C181.6 285.92 192.008 296 220.856 313.448C245.352 328.296 293.32 334.824 321.96 335.512C350.6 336.2 380.016 327.672 401.56 308.776C423.104 289.88 435.632 260.04 430.576 231.84Z" fill="#9538F6"/>
<path d="M458.652 332.523C459.747 324.981 454.52 317.979 446.977 316.884C439.435 315.789 432.433 321.016 431.338 328.558C430.243 336.1 435.47 343.102 443.012 344.197C450.555 345.292 457.557 340.066 458.652 332.523Z" fill="#9538F6"/>
<path opacity="0.8" d="M458.652 332.523C459.747 324.981 454.52 317.979 446.977 316.884C439.435 315.789 432.433 321.016 431.338 328.558C430.243 336.1 435.47 343.102 443.012 344.197C450.555 345.292 457.557 340.066 458.652 332.523Z" fill="white"/>
<path d="M365.048 260L364.712 259.888L363.752 259.512C363.328 259.36 362.776 259.24 362.152 259.064C361.405 258.919 360.648 258.825 359.888 258.784C356.472 258.568 351.352 259.808 346.4 263.52C343.719 265.551 341.317 267.926 339.256 270.584C336.96 273.392 334.712 276.568 332.16 279.768C329.563 283.201 326.455 286.215 322.944 288.704C319.1 291.297 314.756 293.057 310.192 293.872C305.627 294.694 300.94 294.539 296.44 293.416C292.286 292.327 288.25 290.829 284.392 288.944C280.672 287.224 277.192 285.472 273.88 284.024C270.8 282.664 267.603 281.585 264.328 280.8C261.628 280.162 258.862 279.845 256.088 279.856C253.994 279.872 251.911 280.155 249.888 280.696C248.616 281.069 247.379 281.554 246.192 282.144L245.28 282.624C245.179 282.687 245.072 282.738 244.96 282.776L245.256 282.592L246.152 282.072C247.329 281.444 248.564 280.932 249.84 280.544C251.872 279.971 253.969 279.662 256.08 279.624C258.876 279.588 261.667 279.886 264.392 280.512C267.682 281.287 270.895 282.358 273.992 283.712C277.336 285.152 280.816 286.912 284.528 288.608C288.372 290.474 292.392 291.953 296.528 293.024C300.978 294.136 305.614 294.289 310.128 293.472C314.636 292.666 318.927 290.93 322.728 288.376C326.213 285.915 329.299 282.934 331.88 279.536C334.432 276.336 336.68 273.184 339.008 270.368C341.087 267.703 343.508 265.322 346.208 263.288C351.232 259.576 356.424 258.36 359.88 258.632C360.649 258.683 361.413 258.787 362.168 258.944C362.808 259.144 363.36 259.272 363.768 259.44L364.72 259.856L365.048 260Z" fill="white"/>
<path d="M370.096 206.641C370.096 206.681 369.528 206.753 368.536 207.081C367.157 207.586 365.856 208.284 364.672 209.153C363.152 210.217 361.472 211.705 359.544 213.241C357.417 214.901 355.112 216.32 352.672 217.473C348.245 219.596 343.446 220.835 338.544 221.121C337.608 221.201 336.752 221.177 336.008 221.193C335.264 221.209 334.624 221.145 334.104 221.105L332.896 220.985C332.757 220.983 332.62 220.959 332.488 220.913C332.626 220.894 332.766 220.894 332.904 220.913L334.112 220.953H336.008C336.752 220.913 337.608 220.953 338.52 220.825C343.369 220.451 348.107 219.185 352.496 217.089C354.907 215.944 357.191 214.55 359.312 212.929C361.256 211.425 362.944 209.945 364.512 208.929C365.734 208.064 367.084 207.395 368.512 206.945C368.901 206.835 369.297 206.749 369.696 206.689C369.826 206.653 369.961 206.637 370.096 206.641Z" fill="white"/>
<path d="M265.6 225.177C265.454 225.17 265.309 225.149 265.168 225.113C264.88 225.049 264.456 224.985 263.92 224.833C262.418 224.389 260.977 223.757 259.632 222.953C257.659 221.742 255.787 220.375 254.032 218.865C252.024 217.201 249.88 215.305 247.424 213.609C245.131 211.988 242.557 210.808 239.832 210.129C236.089 209.208 232.176 209.224 228.44 210.177C227.376 210.449 226.8 210.657 226.792 210.617C226.915 210.536 227.05 210.474 227.192 210.433C227.464 210.329 227.864 210.169 228.4 210.017C229.898 209.579 231.442 209.31 233 209.217C235.322 209.046 237.657 209.237 239.92 209.785C242.697 210.459 245.321 211.65 247.656 213.297C250.144 215.017 252.288 216.929 254.28 218.601C256.008 220.116 257.848 221.498 259.784 222.737C261.101 223.549 262.504 224.212 263.968 224.713C264.52 224.839 265.065 224.994 265.6 225.177Z" fill="white"/>
<path d="M265.736 149.553C265.306 149.753 264.859 149.917 264.4 150.041C263.876 150.226 263.342 150.384 262.8 150.513C262.168 150.673 261.456 150.889 260.648 151.033C259.84 151.177 258.968 151.377 258.008 151.497C257.048 151.617 256.032 151.729 254.952 151.825C252.607 151.974 250.253 151.945 247.912 151.737C245.573 151.503 243.255 151.094 240.976 150.513C239.936 150.217 238.936 149.945 238.032 149.617C237.128 149.289 236.28 148.985 235.528 148.673C234.776 148.361 234.104 148.033 233.512 147.761C232.92 147.489 232.432 147.225 232.032 147.001C231.609 146.79 231.203 146.547 230.816 146.273C231.259 146.437 231.69 146.632 232.104 146.857C232.512 147.057 233.016 147.305 233.608 147.553C234.2 147.801 234.872 148.121 235.64 148.393C236.408 148.665 237.24 149.009 238.144 149.289C239.048 149.569 240.032 149.857 241.072 150.137C245.597 151.279 250.27 151.718 254.928 151.441C256 151.353 257.016 151.297 257.968 151.153C258.92 151.009 259.792 150.889 260.592 150.745C261.392 150.601 262.104 150.425 262.736 150.289C263.368 150.153 263.912 150.009 264.336 149.889C264.794 149.744 265.262 149.632 265.736 149.553Z" fill="white"/>
<path d="M365.552 149.352C365.434 149.309 365.321 149.253 365.216 149.184L364.288 148.648C363.806 148.355 363.31 148.088 362.8 147.848C362.142 147.496 361.467 147.178 360.776 146.896L359.576 146.392C359.152 146.224 358.704 146.096 358.24 145.936C357.328 145.6 356.312 145.368 355.248 145.088C350.597 144.03 345.772 143.989 341.104 144.968C340.088 145.183 339.084 145.45 338.096 145.768C337.632 145.92 337.176 146.04 336.752 146.2L335.544 146.68C334.849 146.952 334.168 147.259 333.504 147.6C332.988 147.835 332.489 148.102 332.008 148.4L331.064 148.92C330.848 149.032 330.728 149.088 330.72 149.072C330.811 148.985 330.913 148.909 331.024 148.848L331.92 148.256C332.394 147.941 332.888 147.658 333.4 147.408C334.057 147.04 334.735 146.711 335.432 146.424L336.64 145.912C337.064 145.744 337.528 145.616 337.992 145.456C338.986 145.121 339.998 144.84 341.024 144.616C345.743 143.581 350.636 143.625 355.336 144.744C356.408 145.032 357.432 145.28 358.352 145.632C358.816 145.8 359.272 145.936 359.688 146.12L360.896 146.648C361.584 146.953 362.257 147.292 362.912 147.664C363.416 147.926 363.902 148.22 364.368 148.544L365.264 149.152C365.464 149.256 365.6 149.336 365.552 149.352Z" fill="white"/>
<path d="M316.64 95.0078C316.46 95.1437 316.267 95.2616 316.064 95.3598L314.4 96.2798C312.92 97.0798 310.776 98.1918 308.088 99.5358C302.728 102.184 295.2 105.808 286.288 108.064C282.098 109.117 277.806 109.712 273.488 109.84C269.964 109.943 266.439 109.639 262.984 108.936C260.655 108.468 258.378 107.774 256.184 106.864C255.384 106.56 254.832 106.24 254.432 106.064C254.225 105.975 254.024 105.87 253.832 105.752C254.051 105.809 254.263 105.889 254.464 105.992C254.88 106.144 255.456 106.44 256.248 106.72C258.449 107.568 260.723 108.216 263.04 108.656C266.479 109.313 269.981 109.581 273.48 109.456C277.764 109.307 282.02 108.704 286.176 107.656C295.032 105.416 302.568 101.856 307.952 99.2718L314.352 96.1278L316 95.2798C316.207 95.1753 316.421 95.0844 316.64 95.0078Z" fill="white"/>
<path d="M182.752 140.216C182.619 140.409 182.463 140.587 182.288 140.744C181.836 141.241 181.352 141.709 180.84 142.144C178.974 143.773 176.88 145.121 174.624 146.144C171.26 147.656 167.624 148.472 163.936 148.544C161.756 148.584 159.581 148.339 157.464 147.816C155.205 147.237 153.014 146.419 150.928 145.376C146.624 143.28 142.8 140.808 139.064 139.088C135.79 137.483 132.226 136.552 128.584 136.352C126.131 136.226 123.683 136.684 121.44 137.688C120.836 137.971 120.255 138.303 119.704 138.68C119.516 138.819 119.318 138.945 119.112 139.056C119.283 138.897 119.465 138.75 119.656 138.616C120.194 138.208 120.767 137.849 121.368 137.544C123.612 136.472 126.083 135.962 128.568 136.056C132.261 136.231 135.879 137.159 139.2 138.784C142.976 140.504 146.816 142.968 151.08 145.048C153.146 146.071 155.312 146.875 157.544 147.448C159.624 147.966 161.761 148.214 163.904 148.184C170.046 148.1 175.974 145.918 180.704 142C181.384 141.456 181.864 140.976 182.2 140.664C182.372 140.5 182.557 140.351 182.752 140.216Z" fill="white"/>
<path d="M171.616 100.664C171.293 100.888 170.954 101.086 170.6 101.256C169.936 101.616 168.944 102.056 167.696 102.616C166.233 103.231 164.737 103.765 163.216 104.216C159.488 105.329 155.632 105.958 151.744 106.088C150.143 106.146 148.541 106.114 146.944 105.992C145.592 105.888 144.544 105.76 143.744 105.624C143.354 105.58 142.968 105.503 142.592 105.392C142.985 105.378 143.379 105.402 143.768 105.464C144.512 105.552 145.6 105.632 146.968 105.696C148.336 105.76 149.92 105.776 151.696 105.696C153.62 105.601 155.537 105.403 157.44 105.104C159.327 104.78 161.196 104.358 163.04 103.84C164.744 103.344 166.24 102.832 167.512 102.336C168.784 101.84 169.768 101.416 170.456 101.104C170.828 100.921 171.216 100.773 171.616 100.664Z" fill="white"/>
<path d="M114.816 189.513C114.552 189.268 114.311 189.001 114.096 188.713L112.208 186.457C110.1 184.005 107.863 181.668 105.504 179.457C104.223 178.242 102.815 177.169 101.304 176.257C100.068 175.517 98.7152 174.992 97.3037 174.705C95.9941 174.471 94.6534 174.471 93.3438 174.705C93.3438 174.705 93.4318 174.657 93.6078 174.601C93.8681 174.515 94.1359 174.453 94.4078 174.417C95.3902 174.252 96.3933 174.252 97.3758 174.417C98.8335 174.67 100.234 175.182 101.512 175.929C103.065 176.844 104.506 177.937 105.808 179.185C108.184 181.401 110.402 183.78 112.448 186.305C113.248 187.273 113.84 188.081 114.24 188.641C114.462 188.91 114.655 189.202 114.816 189.513Z" fill="white"/>
<path d="M178.632 213.681C178.632 213.681 178.528 213.777 178.32 213.921C178.112 214.065 177.8 214.297 177.368 214.537C176.167 215.242 174.906 215.839 173.6 216.321C169.274 217.955 164.573 218.33 160.043 217.403C155.512 216.476 151.337 214.284 148 211.081C146.989 210.131 146.067 209.09 145.248 207.969C144.952 207.577 144.76 207.249 144.616 207.033C144.472 206.817 144.408 206.697 144.424 206.689C144.763 207.067 145.081 207.462 145.376 207.873C146.241 208.94 147.185 209.941 148.2 210.865C151.54 213.952 155.66 216.066 160.114 216.978C164.569 217.89 169.188 217.566 173.472 216.041C174.77 215.592 176.029 215.041 177.24 214.393C177.691 214.131 178.156 213.893 178.632 213.681Z" fill="white"/>
<path d="M201.936 264.336C201.936 264.336 201.856 264.216 201.712 263.96C201.568 263.704 201.344 263.336 201.072 262.856C200.269 261.434 199.355 260.077 198.336 258.8L197.248 257.52L196.664 256.824L195.984 256.16L194.544 254.736L192.864 253.344C190.181 251.212 187.221 249.455 184.064 248.12C180.254 246.509 176.195 245.564 172.064 245.328C167.31 245.073 162.556 245.837 158.12 247.568C153.44 249.408 148.92 252.184 144.136 254.872C141.713 256.272 139.204 257.517 136.624 258.6C133.95 259.726 131.13 260.467 128.248 260.8C125.364 261.091 122.452 260.915 119.624 260.28C116.887 259.678 114.223 258.78 111.68 257.6C106.917 255.296 102.384 252.542 98.1441 249.376C94.0401 246.456 90.1441 243.632 86.2961 241.376C82.7583 239.21 78.9232 237.571 74.9121 236.512C71.5884 235.694 68.1466 235.466 64.7441 235.84C62.1752 236.107 59.6746 236.83 57.3601 237.976C55.9121 238.718 54.5674 239.646 53.3601 240.736L52.4321 241.6C52.2321 241.8 52.1201 241.896 52.1201 241.896C52.1201 241.896 52.2081 241.784 52.4081 241.568L53.2801 240.632C54.48 239.511 55.8254 238.555 57.2801 237.792C59.6059 236.609 62.1264 235.855 64.7201 235.568C68.151 235.166 71.626 235.374 74.9841 236.184C79.0273 237.238 82.8968 238.871 86.4721 241.032C90.3681 243.288 94.2561 246.104 98.3681 249.032C102.593 252.174 107.106 254.906 111.848 257.192C114.361 258.371 116.995 259.269 119.704 259.872C122.493 260.496 125.364 260.669 128.208 260.384C131.045 260.055 133.822 259.328 136.456 258.224C139.02 257.146 141.515 255.911 143.928 254.528C148.728 251.848 153.24 249.064 157.96 247.216C159.125 246.759 160.316 246.374 161.528 246.064C162.128 245.912 162.72 245.728 163.312 245.608L165.104 245.312C167.407 244.969 169.739 244.862 172.064 244.992C176.244 245.242 180.35 246.21 184.2 247.856C187.359 249.223 190.319 251.01 193 253.168C193.576 253.656 194.136 254.136 194.68 254.584L196.112 256.032L196.784 256.704C196.984 256.944 197.184 257.176 197.368 257.408C197.752 257.864 198.112 258.296 198.448 258.712C199.459 260.003 200.355 261.379 201.128 262.824C201.389 263.315 201.589 263.691 201.728 263.952C201.88 264.2 201.936 264.336 201.936 264.336Z" fill="white"/>
<path d="M177.76 297.753C177.629 297.805 177.492 297.84 177.352 297.857L176.168 298.081C175.546 298.206 174.919 298.3 174.288 298.361C173.552 298.433 172.688 298.553 171.776 298.577L170.304 298.641C169.8 298.641 169.264 298.641 168.704 298.641C167.608 298.641 166.432 298.537 165.2 298.441C162.53 298.149 159.889 297.635 157.304 296.905C154.731 296.13 152.227 295.146 149.816 293.961C148.728 293.377 147.68 292.841 146.752 292.241C146.288 291.953 145.824 291.689 145.4 291.441L144.2 290.601C143.4 290.081 142.784 289.529 142.2 289.065C141.695 288.678 141.212 288.264 140.752 287.825C140.408 287.489 140.112 287.217 139.88 287.025C139.771 286.933 139.674 286.828 139.592 286.713C139.716 286.782 139.831 286.865 139.936 286.961L140.864 287.761C141.256 288.097 141.744 288.505 142.344 288.937C142.944 289.369 143.584 289.913 144.368 290.417L145.576 291.217C146 291.497 146.464 291.753 146.928 292.017C147.856 292.601 148.904 293.121 149.992 293.689C154.776 296.047 159.937 297.55 165.24 298.129C166.464 298.233 167.64 298.361 168.72 298.369C169.264 298.369 169.792 298.417 170.32 298.369H171.776C172.704 298.369 173.544 298.265 174.28 298.217C175.016 298.169 175.648 298.089 176.16 298.009L177.352 297.865C177.481 297.808 177.619 297.77 177.76 297.753Z" fill="white"/>
<path d="M516.648 137.729C516.538 137.934 516.409 138.13 516.264 138.313C515.886 138.872 515.472 139.407 515.024 139.913C513.406 141.795 511.519 143.428 509.424 144.761C506.311 146.747 502.827 148.081 499.184 148.681C497.033 149.024 494.847 149.086 492.68 148.865C490.361 148.609 488.076 148.108 485.864 147.369C481.304 145.905 477.176 143.993 473.232 142.809C469.764 141.693 466.109 141.282 462.48 141.601C460.033 141.824 457.673 142.621 455.592 143.929C455.029 144.296 454.494 144.705 453.992 145.153C453.831 145.321 453.654 145.474 453.464 145.609C453.606 145.424 453.764 145.253 453.936 145.097C454.41 144.616 454.927 144.18 455.48 143.793C457.558 142.413 459.942 141.562 462.424 141.313C466.103 140.926 469.822 141.296 473.352 142.401C477.352 143.577 481.48 145.473 485.992 146.937C488.18 147.663 490.437 148.161 492.728 148.425C494.86 148.643 497.01 148.586 499.128 148.257C502.725 147.684 506.172 146.398 509.264 144.473C511.339 143.17 513.223 141.587 514.864 139.769C515.321 139.28 515.75 138.767 516.152 138.233C516.305 138.053 516.471 137.885 516.648 137.729Z" fill="white"/>
<path d="M500.056 100.137C499.772 100.407 499.464 100.65 499.136 100.865C498.528 101.321 497.616 101.921 496.456 102.617C495.095 103.432 493.69 104.172 492.248 104.833C490.476 105.633 488.66 106.33 486.808 106.921C484.949 107.493 483.057 107.955 481.144 108.305C479.582 108.578 478.006 108.771 476.424 108.881C475.072 108.969 473.976 108.985 473.224 108.961C472.83 108.977 472.436 108.953 472.048 108.889C472.434 108.823 472.825 108.793 473.216 108.801C473.968 108.801 475.056 108.705 476.416 108.585C477.776 108.465 479.344 108.249 481.088 107.929C482.977 107.557 484.846 107.09 486.688 106.529C488.526 105.943 490.331 105.259 492.096 104.481C493.696 103.753 495.144 103.033 496.312 102.361C497.48 101.689 498.416 101.137 499.048 100.761C499.365 100.524 499.702 100.315 500.056 100.137Z" fill="white"/>
<path d="M456.32 196.088C456.033 195.878 455.766 195.642 455.52 195.384L453.328 193.424C450.899 191.291 448.357 189.291 445.712 187.432C444.273 186.398 442.725 185.523 441.096 184.824C439.769 184.267 438.357 183.94 436.92 183.856C435.59 183.801 434.26 183.979 432.992 184.384C432.992 184.384 433.072 184.32 433.24 184.24C433.483 184.125 433.734 184.028 433.992 183.952C434.945 183.658 435.94 183.525 436.936 183.56C438.414 183.606 439.871 183.915 441.24 184.472C442.904 185.159 444.483 186.037 445.944 187.088C448.611 188.95 451.145 190.995 453.528 193.208C454.44 194.056 455.128 194.808 455.632 195.272C455.892 195.517 456.123 195.791 456.32 196.088Z" fill="white"/>
<path d="M522.897 211.049C522.897 211.049 522.817 211.153 522.625 211.329C522.433 211.505 522.161 211.769 521.769 212.065C520.687 212.936 519.528 213.704 518.305 214.361C514.252 216.576 509.656 217.6 505.046 217.317C500.436 217.034 496 215.455 492.249 212.761C491.117 211.962 490.062 211.06 489.097 210.065C488.745 209.721 488.505 209.425 488.297 209.265C488.201 209.171 488.121 209.063 488.057 208.945C488.057 208.945 488.457 209.313 489.169 209.985C490.167 210.923 491.237 211.781 492.369 212.553C496.105 215.145 500.479 216.664 505.017 216.946C509.556 217.228 514.084 216.262 518.113 214.153C519.335 213.525 520.506 212.803 521.617 211.993C522.025 211.655 522.453 211.34 522.897 211.049Z" fill="white"/>
<path d="M553.104 257.913C552.997 257.815 552.895 257.711 552.8 257.601C552.608 257.369 552.352 257.033 552 256.601C551.003 255.307 549.906 254.092 548.72 252.969L547.456 251.849L546.784 251.249L545.984 250.681L544.384 249.481L542.52 248.337C539.572 246.604 536.401 245.28 533.096 244.401C529.091 243.332 524.932 242.958 520.8 243.297C516.058 243.716 511.459 245.142 507.312 247.481C502.936 249.961 498.856 253.345 494.512 256.681C492.308 258.403 490 259.987 487.6 261.425C485.106 262.915 482.412 264.044 479.6 264.777C476.783 265.464 473.875 265.699 470.984 265.473C468.185 265.242 465.419 264.706 462.736 263.873C457.697 262.267 452.824 260.18 448.184 257.641C443.704 255.321 439.472 253.081 435.328 251.393C431.504 249.752 427.462 248.674 423.328 248.193C419.921 247.862 416.482 248.133 413.168 248.993C410.663 249.618 408.29 250.685 406.16 252.145C404.826 253.087 403.616 254.194 402.56 255.441L401.8 256.465C401.624 256.697 401.528 256.809 401.528 256.809C401.528 256.809 401.6 256.681 401.76 256.441L402.496 255.393C403.527 254.111 404.727 252.975 406.064 252.017C408.195 250.513 410.584 249.412 413.112 248.769C416.452 247.885 419.922 247.601 423.36 247.929C427.513 248.407 431.574 249.485 435.416 251.129C439.592 252.809 443.84 255.049 448.32 257.353C452.943 259.871 457.794 261.944 462.808 263.545C465.465 264.353 468.201 264.871 470.968 265.089C473.816 265.315 476.682 265.082 479.456 264.401C482.22 263.675 484.868 262.563 487.32 261.097C489.708 259.672 492.003 258.098 494.192 256.385C498.544 253.065 502.648 249.673 507.064 247.177C508.155 246.561 509.282 246.014 510.44 245.537C511.008 245.297 511.56 245.041 512.136 244.833L513.864 244.289C516.097 243.625 518.392 243.188 520.712 242.985C524.886 242.649 529.085 243.033 533.128 244.121C536.453 245.016 539.64 246.362 542.6 248.121L544.464 249.281L546.064 250.513L546.864 251.081L547.536 251.697L548.792 252.833C549.957 253.976 551.027 255.212 551.992 256.529C552.312 256.977 552.568 257.329 552.744 257.561L553.104 257.913Z" fill="white"/>
<path d="M533.856 294.4C533.734 294.465 533.605 294.519 533.472 294.56L532.336 294.952C531.738 295.161 531.129 295.34 530.512 295.488C529.784 295.664 528.976 295.904 528.048 296.056L526.608 296.328C526.104 296.416 525.576 296.464 525.008 296.536C523.92 296.696 522.744 296.752 521.504 296.832C518.831 296.913 516.156 296.776 513.504 296.424C510.848 296.021 508.231 295.395 505.68 294.552C504.512 294.136 503.4 293.752 502.4 293.288C501.896 293.064 501.4 292.872 500.944 292.648L499.64 291.984C498.792 291.576 498.08 291.12 497.44 290.744C496.889 290.431 496.355 290.089 495.84 289.72L494.856 289.024C494.736 288.95 494.626 288.861 494.528 288.76C494.662 288.806 494.789 288.871 494.904 288.952L495.928 289.584C496.36 289.864 496.904 290.2 497.528 290.544C498.152 290.888 498.888 291.344 499.736 291.72L501.048 292.352C501.504 292.576 502 292.76 502.504 292.976C503.504 293.416 504.608 293.776 505.768 294.192C508.326 295.005 510.945 295.609 513.6 296C516.238 296.356 518.9 296.503 521.56 296.44C522.784 296.368 523.96 296.336 525.032 296.184C525.568 296.12 526.096 296.08 526.632 296L528.072 295.76C528.992 295.632 529.8 295.408 530.528 295.256C531.256 295.104 531.864 294.936 532.36 294.784L533.52 294.472C533.629 294.436 533.742 294.412 533.856 294.4Z" fill="white"/>
<path d="M367.264 177.233L361.664 176.353L326.968 165.153L306.68 159.289C303.83 158.261 300.797 157.836 297.774 158.043C294.751 158.25 291.804 159.083 289.12 160.489C279.52 165.369 253.072 189.993 253.072 189.993L272.12 209.633L263.152 249.377C273.192 277.921 292.848 281.193 292.848 281.193C302.456 281.603 312.044 280.018 321.008 276.537C339.256 269.601 358.4 253.273 360.8 246.257C362.24 242.049 363.432 233.201 364.376 223.209L393.272 211.433L401.104 171.433L367.264 177.233Z" fill="#9FF7B5"/>
<path d="M325.056 248.002C325.056 248.002 324.968 248.098 324.776 248.25C324.584 248.402 324.304 248.634 323.912 248.89C322.82 249.625 321.657 250.25 320.44 250.754C316.391 252.479 311.906 252.902 307.606 251.964C303.306 251.027 299.404 248.775 296.44 245.522C295.538 244.553 294.734 243.497 294.04 242.37C293.792 241.978 293.64 241.65 293.52 241.434C293.457 241.328 293.406 241.215 293.368 241.098C293.659 241.476 293.926 241.871 294.168 242.282C294.9 243.362 295.724 244.377 296.632 245.314C299.593 248.456 303.435 250.631 307.653 251.553C311.871 252.475 316.27 252.102 320.272 250.482C321.486 250.006 322.656 249.425 323.768 248.746C324.616 248.242 325.032 247.954 325.056 248.002Z" fill="#263238"/>
<path d="M314.08 166.809C314.112 166.869 314.133 166.933 314.144 167.001C314.184 167.153 314.232 167.337 314.288 167.569C314.408 168.065 314.576 168.809 314.776 169.761C315.368 172.455 315.75 175.191 315.92 177.945C316.022 179.855 315.912 181.771 315.592 183.657C315.204 185.832 314.432 187.92 313.312 189.825C312.013 191.883 310.414 193.735 308.568 195.321C306.688 197.001 304.608 198.521 302.488 200.169C297.976 203.553 293.592 206.617 289.688 209.401C285.784 212.185 282.304 214.673 279.536 216.769L279.448 216.841L279.36 216.769C277.407 215.219 275.552 213.549 273.808 211.769C273.336 211.289 272.9 210.776 272.504 210.233C272.368 210.049 272.288 209.897 272.224 209.801C272.191 209.749 272.162 209.696 272.136 209.641C272.136 209.641 272.288 209.833 272.568 210.185C272.989 210.702 273.437 211.196 273.912 211.665C275.691 213.391 277.56 215.023 279.512 216.553H279.336C282.088 214.425 285.528 211.889 289.448 209.097C293.368 206.305 297.736 203.225 302.248 199.841C304.36 198.241 306.44 196.681 308.304 195.041C310.125 193.485 311.705 191.668 312.992 189.649C314.101 187.792 314.868 185.752 315.256 183.625C315.587 181.761 315.713 179.867 315.632 177.977C315.489 175.236 315.152 172.509 314.624 169.817C314.448 168.881 314.312 168.145 314.208 167.609C314.165 167.379 314.133 167.187 314.112 167.033C314.087 166.961 314.076 166.885 314.08 166.809Z" fill="#263238"/>
<path d="M464.744 184.801C472.864 177.833 475.616 165.297 471.144 155.577L459.704 154.401C462.583 152.814 464.916 150.395 466.396 147.46C467.877 144.525 468.436 141.211 468 137.953C464.835 141.228 460.725 143.432 456.245 144.257C451.766 145.082 447.14 144.486 443.016 142.553C437.672 139.913 433.336 134.993 427.464 133.961C422.136 133.025 416.896 135.561 411.792 137.337C406.688 139.113 400.512 140.145 396.288 136.761C392.944 134.081 391.904 129.385 392.12 125.097C392.336 120.809 393.576 116.633 393.84 112.353C394.031 108.142 393.301 103.939 391.699 100.04C390.098 96.1405 387.664 92.6378 384.568 89.7767C383.533 86.3693 381.685 83.2647 379.183 80.7303C376.681 78.1959 373.6 76.3078 370.207 75.2285C366.813 74.1492 363.208 73.9111 359.702 74.5348C356.195 75.1585 352.893 76.6253 350.08 78.8087C347.576 80.7447 345.464 83.2487 342.624 84.6487C339.424 86.2487 335.688 86.2487 332.224 87.0487C328.76 87.8487 325.104 90.2007 324.736 93.7607L323.336 101.049C323.104 101.569 322.856 102.081 322.536 102.585C319.592 107.753 313.56 111.153 312.24 116.985C311.504 120.241 312.416 123.769 311.32 126.921C309.872 131.073 305.392 133.409 303.32 137.273C300.456 142.585 302.4 151.889 306.984 155.809C311.568 159.729 321.016 163.889 326.92 165.145C328.52 159.009 329.936 152.449 331.304 145.737C333.704 148.049 336.24 150.249 338.752 152.433C345.32 158.145 352.032 163.945 356.592 171.361C365.256 185.465 365.392 204.161 376.312 216.593C378.448 219.033 381.048 221.201 384.152 222.145C387.256 223.089 390.936 222.585 393.232 220.297C395.944 217.593 396.296 213.033 399.296 210.657C403.296 207.497 409.104 210.017 413.384 212.761C416.488 214.745 419.592 216.841 423.104 217.929C426.616 219.017 430.712 218.945 433.704 216.801C436.696 214.657 438.008 210.081 435.848 207.097C434.984 205.905 433.696 205.073 432.84 203.897C431.984 202.721 431.736 200.801 432.912 199.897C434.088 198.993 436.016 199.897 437.416 200.697C440.851 202.715 444.692 203.943 448.66 204.292C452.629 204.641 456.625 204.101 460.359 202.712C464.093 201.323 467.471 199.12 470.247 196.262C473.023 193.405 475.128 189.965 476.408 186.193C472.466 186.783 468.437 186.302 464.744 184.801Z" fill="#263238"/>
<path d="M457.6 122.041C457.967 122.307 458.312 122.601 458.632 122.921C459.598 123.819 460.409 124.871 461.032 126.033C461.466 126.88 461.763 127.789 461.912 128.729C462.096 129.946 461.926 131.19 461.421 132.312C460.915 133.435 460.097 134.388 459.064 135.057C458.457 135.45 457.767 135.699 457.048 135.785C456.287 135.866 455.517 135.756 454.808 135.465C451.84 134.249 450.344 130.817 447.136 129.289C444.008 127.633 440.008 127.521 436.168 128.401C432.328 129.281 428.576 131.369 424.792 133.497C421.008 135.625 416.984 137.905 412.352 138.697C410.079 139.137 407.74 139.121 405.472 138.649C404.359 138.395 403.283 137.997 402.272 137.465C401.291 136.927 400.387 136.26 399.584 135.481C398.059 133.93 396.886 132.069 396.144 130.025C395.418 128.085 394.94 126.061 394.72 124.001C394.296 120.001 394.632 116.161 394.672 112.617C394.832 109.328 394.506 106.034 393.704 102.841C393.323 101.462 392.811 100.123 392.176 98.8408C391.621 97.6877 390.97 96.5826 390.232 95.5367C389.062 93.8545 387.689 92.3229 386.144 90.9768C385.161 90.1318 384.115 89.3616 383.016 88.6727L382.144 88.1528L381.856 87.9688C381.965 88.009 382.07 88.0599 382.168 88.1208L383.064 88.6008C385.973 90.3223 388.482 92.643 390.424 95.4088C392.025 97.6394 393.229 100.129 393.984 102.769C394.819 105.984 395.167 109.306 395.016 112.625C395.016 116.193 394.672 120.001 395.104 123.961C395.322 125.985 395.793 127.974 396.504 129.881C397.231 131.869 398.377 133.678 399.864 135.185C400.636 135.941 401.508 136.587 402.456 137.105C403.432 137.612 404.466 137.996 405.536 138.249C407.752 138.702 410.035 138.716 412.256 138.289C416.8 137.489 420.784 135.257 424.568 133.137C428.352 131.017 432.088 128.929 436.056 128.025C437.976 127.572 439.952 127.405 441.92 127.529C442.863 127.595 443.798 127.747 444.712 127.985C445.599 128.224 446.458 128.56 447.272 128.985C450.592 130.585 452.072 134.057 454.896 135.185C455.541 135.459 456.243 135.57 456.94 135.509C457.638 135.448 458.31 135.215 458.896 134.833C459.972 134.155 460.81 133.16 461.296 131.985C461.718 130.974 461.856 129.868 461.696 128.785C461.574 127.865 461.303 126.971 460.896 126.137C460.305 124.983 459.539 123.928 458.624 123.009C458.312 122.689 458.064 122.457 457.896 122.305C457.728 122.153 457.6 122.041 457.6 122.041Z" fill="#263238"/>
<path d="M326.84 168.217C326.84 168.217 326.84 168.097 326.776 167.857C326.734 167.502 326.662 167.151 326.56 166.809C326.192 165.484 325.521 164.262 324.6 163.241C323.114 161.648 321.306 160.391 319.296 159.553C316.976 158.489 314.096 157.953 310.944 157.377C307.792 156.801 304.216 156.113 301 153.969C299.214 152.762 297.714 151.18 296.606 149.332C295.497 147.484 294.806 145.416 294.582 143.273C294.358 141.13 294.606 138.963 295.308 136.926C296.011 134.889 297.151 133.03 298.648 131.481C301.96 128.081 306.648 126.393 310.472 123.409C311.41 122.657 312.253 121.795 312.984 120.841C313.672 119.868 314.191 118.786 314.52 117.641C315.16 115.369 315.104 112.993 315.32 110.681C315.407 109.522 315.622 108.376 315.96 107.265C316.315 106.164 316.889 105.146 317.648 104.273C319.221 102.696 321.201 101.588 323.368 101.073C325.424 100.473 327.472 100.097 329.4 99.5687C331.286 99.0872 333.071 98.2745 334.672 97.1687C336.15 96.1228 337.477 94.8792 338.616 93.4727C339.684 92.2123 340.68 90.8929 341.6 89.5207C343.368 86.8487 344.88 84.3447 346.488 82.3207C347.819 80.5737 349.389 79.0225 351.152 77.7127C352.273 76.8905 353.518 76.253 354.84 75.8247C355.295 75.6649 355.764 75.5471 356.24 75.4727C356.24 75.4727 355.752 75.5847 354.864 75.9047C353.565 76.3614 352.345 77.0172 351.248 77.8487C349.515 79.1662 347.975 80.72 346.672 82.4647C345.072 84.4647 343.6 86.9607 341.872 89.6647C340.963 91.0857 339.969 92.4508 338.896 93.7527C337.74 95.1872 336.395 96.4575 334.896 97.5287C333.264 98.6372 331.45 99.4496 329.536 99.9287C327.584 100.473 325.536 100.849 323.512 101.449C321.416 101.939 319.498 103.006 317.976 104.529C317.257 105.361 316.713 106.33 316.376 107.377C316.048 108.46 315.842 109.576 315.76 110.705C315.544 112.993 315.608 115.385 314.96 117.745C314.618 118.926 314.076 120.041 313.36 121.041C312.606 122.022 311.736 122.909 310.768 123.681C308.809 125.123 306.754 126.431 304.616 127.593C302.579 128.718 300.696 130.103 299.016 131.713C297.557 133.222 296.445 135.032 295.759 137.015C295.072 138.999 294.828 141.109 295.043 143.198C295.258 145.286 295.927 147.302 297.003 149.104C298.079 150.907 299.536 152.453 301.272 153.633C304.392 155.737 307.944 156.409 311.072 157.041C314.2 157.673 317.12 158.193 319.456 159.289C321.488 160.153 323.308 161.446 324.792 163.081C325.713 164.13 326.371 165.383 326.712 166.737C326.804 167.085 326.863 167.441 326.888 167.801C326.84 168.097 326.84 168.217 326.84 168.217Z" fill="#263238"/>
<path d="M390.712 96.3998C390.502 96.379 390.297 96.325 390.104 96.2398C389.557 96.0611 389.023 95.8473 388.504 95.5998C385.04 93.9686 382.084 91.4275 379.952 88.2478C379.632 87.7697 379.341 87.2728 379.08 86.7598C378.966 86.5801 378.882 86.3828 378.832 86.1758C378.888 86.1758 379.344 86.9118 380.192 88.0718C382.413 91.1066 385.3 93.5916 388.632 95.3358C389.904 95.9998 390.744 96.3358 390.712 96.3998Z" fill="#455A64"/>
<path d="M417.312 150.968C417.312 150.968 416.808 150.84 415.904 150.648C414.624 150.377 413.324 150.217 412.016 150.168C410.079 150.115 408.14 150.171 406.208 150.336C404.016 150.488 401.6 150.712 399.048 150.656C396.632 150.656 394.236 150.206 391.984 149.328C390.156 148.564 388.533 147.38 387.248 145.872C386.386 144.853 385.765 143.652 385.432 142.36C385.345 142.011 385.289 141.655 385.264 141.296C385.247 141.171 385.247 141.045 385.264 140.92C385.312 140.92 385.336 141.432 385.592 142.32C385.982 143.56 386.628 144.705 387.488 145.68C388.764 147.124 390.358 148.252 392.144 148.976C394.356 149.811 396.7 150.239 399.064 150.24C401.584 150.296 403.992 150.088 406.192 149.952C408.138 149.8 410.091 149.774 412.04 149.872C413.361 149.949 414.672 150.155 415.952 150.488C416.299 150.58 416.641 150.689 416.976 150.816C417.096 150.848 417.209 150.9 417.312 150.968Z" fill="#455A64"/>
<path d="M464.456 187.345C464.456 187.345 464.384 187.345 464.224 187.449C463.996 187.553 463.757 187.631 463.512 187.681C462.562 187.884 461.576 187.84 460.648 187.553C459.189 187.084 457.869 186.26 456.808 185.153C455.461 183.638 454.413 181.882 453.72 179.977C452.848 177.929 452.12 175.577 450.688 173.401C449.965 172.274 449.114 171.235 448.152 170.305C447.114 169.333 445.978 168.472 444.76 167.737C439.736 164.705 433.136 163.465 426.36 163.865C419.584 164.265 413.208 165.545 407.312 165.953C402.084 166.513 396.796 165.968 391.792 164.353C388.406 163.253 385.346 161.328 382.888 158.753C382.507 158.352 382.152 157.927 381.824 157.481C381.568 157.167 381.338 156.832 381.136 156.481C380.976 156.217 380.848 156.001 380.744 155.841C380.694 155.772 380.654 155.697 380.624 155.617C380.624 155.617 380.688 155.681 380.784 155.817L381.2 156.433C381.419 156.771 381.66 157.094 381.92 157.401C382.255 157.838 382.619 158.252 383.008 158.641C385.483 161.136 388.528 162.992 391.88 164.049C396.855 165.608 402.098 166.12 407.28 165.553C413.144 165.121 419.512 163.777 426.336 163.425C433.16 163.073 439.816 164.281 444.92 167.385C446.159 168.139 447.314 169.021 448.368 170.017C449.348 170.98 450.212 172.054 450.944 173.217C452.392 175.449 453.104 177.825 453.96 179.865C454.619 181.747 455.629 183.488 456.936 184.993C457.96 186.087 459.238 186.911 460.656 187.393C461.557 187.696 462.521 187.765 463.456 187.593C464.136 187.481 464.448 187.313 464.456 187.345Z" fill="#455A64"/>
<path d="M338.632 96.3936C337.134 96.3563 335.677 96.8822 334.549 97.8672C333.42 98.8522 332.702 100.225 332.536 101.714L326.064 169.082C324.944 178.554 337.336 198.866 347.488 199.986C357.736 201.114 358.744 196.146 360.072 187.186C362.296 172.194 363.04 166.546 363.032 166.634C363.024 166.722 376.232 166.194 381.128 149.69C383.528 141.482 384.952 127.682 385.728 116.354C386.424 106.154 381.36 92.8656 371.136 92.6016L338.632 96.3936Z" fill="#EDEDED"/>
<path d="M381.265 125.273C381.198 125.844 380.908 126.365 380.458 126.722C380.008 127.079 379.435 127.243 378.865 127.177C378.587 127.163 378.314 127.093 378.064 126.973C377.813 126.852 377.589 126.682 377.405 126.473C377.221 126.265 377.08 126.021 376.992 125.757C376.903 125.494 376.868 125.215 376.889 124.937C376.959 124.368 377.25 123.849 377.698 123.491C378.147 123.134 378.718 122.966 379.289 123.025C379.567 123.039 379.84 123.109 380.091 123.231C380.343 123.352 380.567 123.522 380.751 123.732C380.935 123.942 381.076 124.186 381.164 124.451C381.252 124.715 381.286 124.995 381.265 125.273Z" fill="#263238"/>
<path d="M382.184 120.912C381.928 121.216 380.2 120.112 377.856 120.28C375.512 120.448 373.856 121.736 373.608 121.472C373.48 121.352 373.712 120.824 374.408 120.224C375.372 119.452 376.551 118.997 377.784 118.92C379 118.829 380.214 119.129 381.248 119.776C382.024 120.28 382.304 120.8 382.184 120.912Z" fill="#263238"/>
<path d="M360.681 126.488C360.401 126.768 358.785 125.496 356.441 125.44C354.097 125.384 352.345 126.504 352.097 126.24C351.977 126.104 352.265 125.6 353.033 125.08C354.066 124.402 355.285 124.063 356.521 124.112C357.739 124.143 358.915 124.56 359.881 125.304C360.585 125.848 360.801 126.4 360.681 126.488Z" fill="#263238"/>
<path d="M365.048 138.881C365.048 138.745 366.536 138.689 368.92 138.697C369.52 138.697 370.096 138.697 370.256 138.273C370.385 137.667 370.326 137.037 370.088 136.465C369.72 134.95 369.333 133.35 368.928 131.665C367.328 124.905 366.264 119.377 366.528 119.313C366.792 119.249 368.312 124.689 369.904 131.449C370.288 133.113 370.648 134.697 370.992 136.249C371.279 137.023 371.279 137.875 370.992 138.649C370.878 138.846 370.722 139.015 370.533 139.143C370.344 139.27 370.129 139.353 369.904 139.385C369.561 139.429 369.214 139.429 368.872 139.385C366.504 139.201 365.04 139.009 365.048 138.881Z" fill="#263238"/>
<path d="M363.032 166.618C355.075 165.69 347.533 162.569 341.248 157.602C341.248 157.602 345.416 169.938 362.496 170.586L363.032 166.618Z" fill="#BDBDBD"/>
<path d="M361.008 122.48C360.64 123.048 358.424 122.216 355.672 121.912C352.92 121.608 350.576 121.832 350.352 121.192C350.256 120.888 350.768 120.392 351.784 120C353.118 119.519 354.547 119.365 355.952 119.552C357.364 119.706 358.719 120.194 359.904 120.976C360.8 121.6 361.176 122.208 361.008 122.48Z" fill="#263238"/>
<path d="M381.832 117.769C381.448 118.321 379.808 117.857 377.832 117.929C375.856 118.001 374.264 118.465 373.832 117.929C373.656 117.665 373.888 117.129 374.576 116.585C375.506 115.91 376.626 115.546 377.776 115.545C378.91 115.511 380.027 115.827 380.976 116.449C381.752 116.961 382 117.505 381.832 117.769Z" fill="#263238"/>
<path d="M359.384 143.128C360.458 142.395 361.775 142.108 363.056 142.328C363.71 142.418 364.312 142.732 364.76 143.216C365.245 143.932 365.458 144.797 365.36 145.656C365.364 146.175 365.286 146.69 365.128 147.184C364.964 147.678 364.614 148.088 364.152 148.328C363.639 148.513 363.082 148.541 362.552 148.408C361.672 148.295 360.828 147.989 360.08 147.512C359.708 147.274 359.392 146.957 359.154 146.584C358.917 146.211 358.763 145.79 358.704 145.352C358.655 144.911 358.749 144.466 358.972 144.083C359.195 143.7 359.536 143.399 359.944 143.224" fill="#BDBDBD"/>
<path d="M365.696 148.265C365.528 148.329 365.216 147.817 364.656 147.121C363.96 146.207 363.087 145.443 362.089 144.874C361.091 144.305 359.989 143.942 358.848 143.809C357.96 143.681 357.368 143.673 357.328 143.497C357.288 143.321 357.848 143.025 358.864 142.921C360.204 142.816 361.545 143.117 362.712 143.785C363.882 144.445 364.823 145.447 365.408 146.657C365.84 147.577 365.848 148.217 365.696 148.265Z" fill="#263238"/>
<path d="M325.16 164.449C330.72 163.337 335.008 158.561 336.92 153.249C338.832 147.937 338.728 142.089 338.224 136.449C338.238 136.084 338.178 135.72 338.048 135.379C337.917 135.038 337.718 134.727 337.464 134.465C336.624 133.817 335.416 134.345 334.504 134.897C330.999 137.028 327.639 139.391 324.448 141.969C321.472 144.369 318.528 147.129 317.384 150.769C315.632 156.369 319.336 163.049 325.008 164.521" fill="#263238"/>
<path d="M452.96 163.145L426.744 121.001L419.496 106.169C419.496 106.169 417.184 103.105 414.784 100.489C410.848 96.193 406.952 99.529 406.952 99.529C406.734 99.0218 406.363 98.5952 405.891 98.3085C405.42 98.0217 404.87 97.8891 404.32 97.929C403.613 97.9286 402.915 98.0958 402.285 98.4171C401.655 98.7383 401.111 99.2044 400.696 99.777C400.696 99.777 399.624 98.585 396.648 98.401C395.971 98.3929 395.311 98.6064 394.768 99.009C393.792 98.153 392 96.921 390.28 97.545C388.936 98.033 380.784 104.233 378.776 107.353C377.784 108.897 379.624 110.897 382.104 109.961C383.124 109.631 384.118 109.228 385.08 108.753C385.832 108.33 386.513 107.79 387.096 107.153C387.096 107.153 385.04 110.753 387.096 111.385C387.769 111.52 388.464 111.506 389.131 111.344C389.799 111.183 390.423 110.877 390.96 110.449C391.76 109.793 392.64 108.937 393.496 108.097L393.4 108.241C392.264 109.921 395.224 112.409 396.656 111.401C397.322 110.931 397.96 110.424 398.568 109.881C401.896 112.281 397.28 115.393 395.328 115.233C392.324 115.005 389.307 115.005 386.304 115.233C384.608 115.369 383.104 115.777 382.176 116.713C381.072 117.849 382.232 120.233 383.776 120.473C386.648 120.921 390.312 121.553 394.12 122.537C398.6 123.689 410.336 127.505 410.336 127.505L411.48 128.433L427.424 167.321L400.128 173.105L394.032 207.697L443.312 194.321C454.4 188.481 459.688 173.705 452.96 163.145Z" fill="#EDEDED"/>
<path d="M410.345 127.433C410.132 127.403 409.923 127.352 409.721 127.281L407.953 126.777L401.465 124.849L396.993 123.497C395.393 123.001 393.673 122.489 391.849 122.025C389.949 121.513 388.02 121.115 386.073 120.833C385.003 120.815 383.944 120.623 382.937 120.265C382.668 120.144 382.428 119.966 382.233 119.745C382.126 119.618 382.045 119.471 381.993 119.313L381.937 118.889C381.852 118.323 381.887 117.745 382.041 117.193C382.237 116.626 382.643 116.157 383.177 115.881C383.662 115.63 384.171 115.426 384.697 115.273C385.736 114.976 386.816 114.843 387.897 114.881C389.977 114.881 391.937 115.201 393.809 115.121C394.718 115.1 395.624 115.012 396.521 114.857C397.393 114.697 398.225 114.473 399.041 114.265C400.548 113.794 402.127 113.591 403.705 113.665C405 113.79 406.268 114.113 407.465 114.625C408.365 115 409.241 115.431 410.089 115.913C410.785 116.305 411.313 116.633 411.689 116.849C411.873 116.956 412.05 117.076 412.217 117.209C412.016 117.133 411.823 117.036 411.641 116.921L410.041 116.057C409.187 115.603 408.308 115.197 407.409 114.841C406.229 114.361 404.982 114.064 403.713 113.961C402.17 113.905 400.629 114.119 399.161 114.593C398.361 114.809 397.513 115.049 396.625 115.217C395.708 115.384 394.78 115.48 393.849 115.505C391.945 115.593 389.961 115.313 387.929 115.289C386.902 115.258 385.877 115.385 384.889 115.665C383.913 115.985 382.801 116.329 382.489 117.321C382.359 117.817 382.329 118.334 382.401 118.841L382.457 119.209C382.485 119.308 382.537 119.399 382.609 119.473C382.769 119.649 382.962 119.793 383.177 119.897C384.144 120.226 385.155 120.404 386.177 120.425C388.141 120.717 390.086 121.129 392.001 121.657C393.833 122.129 395.545 122.657 397.145 123.169L401.609 124.569L408.057 126.625L409.801 127.201C409.988 127.262 410.171 127.34 410.345 127.433Z" fill="#BDBDBD"/>
<path d="M390.129 97.6016C390.177 97.6656 388.897 98.4016 387.009 99.8336C385.907 100.673 384.86 101.582 383.873 102.554C382.753 103.642 381.577 104.954 380.185 106.114C379.488 106.59 378.97 107.285 378.713 108.09C378.614 108.444 378.66 108.823 378.839 109.144C379.019 109.464 379.319 109.701 379.673 109.802C380.362 109.994 381.089 110.008 381.785 109.842C382.413 109.725 383.03 109.548 383.625 109.314C384.794 108.817 385.885 108.154 386.865 107.346C386.668 107.635 386.425 107.889 386.145 108.098C385.421 108.71 384.613 109.213 383.745 109.594C383.139 109.851 382.509 110.049 381.865 110.186C381.109 110.381 380.316 110.381 379.561 110.186C379.11 110.06 378.727 109.762 378.495 109.356C378.263 108.95 378.2 108.469 378.321 108.018C378.593 107.124 379.157 106.347 379.921 105.81C381.289 104.642 382.465 103.41 383.617 102.29C384.616 101.321 385.686 100.428 386.817 99.6176C387.793 98.9216 388.617 98.4256 389.217 98.0896C389.504 97.8982 389.81 97.7348 390.129 97.6016Z" fill="#BDBDBD"/>
<path d="M400.136 100.897C399.851 101.282 399.541 101.648 399.208 101.993L396.576 104.889L392.632 109.153C391.844 110.018 390.906 110.733 389.864 111.265C389.292 111.553 388.664 111.709 388.024 111.721C387.684 111.727 387.346 111.665 387.03 111.538C386.714 111.412 386.426 111.224 386.184 110.985C385.935 110.708 385.783 110.357 385.752 109.985C385.725 109.64 385.76 109.293 385.856 108.961C386.039 108.334 386.325 107.741 386.704 107.209C388.12 105.713 389.432 104.305 390.608 103.009C391.784 101.713 392.96 100.697 393.904 99.8091C394.31 99.3848 394.77 99.0163 395.272 98.7131C395.678 98.5333 396.116 98.4354 396.56 98.4251C397.272 98.3771 397.688 98.4251 397.648 98.5211C397.29 98.4781 396.928 98.4943 396.576 98.5691C396.158 98.605 395.749 98.7133 395.368 98.8891C394.897 99.2085 394.465 99.5817 394.08 100.001C393.168 100.913 392.04 101.969 390.88 103.249C389.72 104.529 388.416 105.985 387.008 107.497C386.657 107.984 386.387 108.524 386.208 109.097C386.125 109.383 386.093 109.68 386.112 109.977C386.145 110.259 386.262 110.524 386.448 110.737C386.861 111.132 387.413 111.347 387.984 111.337C388.56 111.326 389.125 111.187 389.64 110.929C390.64 110.423 391.542 109.743 392.304 108.921L396.304 104.721L399.032 101.921L399.792 101.169C400.005 100.977 400.12 100.886 400.136 100.897Z" fill="#BDBDBD"/>
<path d="M412.392 104.752C412.392 104.752 412.392 105 412.072 105.224C411.886 105.369 411.672 105.474 411.443 105.532C411.214 105.589 410.976 105.598 410.743 105.558C410.51 105.518 410.288 105.43 410.092 105.3C409.895 105.169 409.728 104.999 409.6 104.8C409.416 104.496 409.416 104.264 409.464 104.256C409.512 104.248 409.624 104.408 409.832 104.616C410.097 104.887 410.437 105.071 410.808 105.144C411.185 105.2 411.57 105.141 411.912 104.976C412.184 104.848 412.344 104.712 412.392 104.752Z" fill="#BDBDBD"/>
<path d="M413.352 108.424C413.264 108.496 412.664 107.896 412.136 106.992C411.751 106.484 411.521 105.875 411.472 105.24C411.576 105.2 411.976 105.92 412.496 106.784C412.861 107.285 413.149 107.838 413.352 108.424Z" fill="#BDBDBD"/>
<path d="M415.121 122.729C414.77 122.224 414.513 121.661 414.361 121.065C413.904 119.652 413.683 118.174 413.705 116.689C413.734 115.205 414.004 113.735 414.505 112.337C414.67 111.745 414.941 111.186 415.305 110.689C414.631 112.626 414.24 114.649 414.145 116.697C414.175 118.745 414.504 120.777 415.121 122.729Z" fill="#BDBDBD"/>
<path d="M436.656 178.16C436.576 178.16 436.496 177.312 436.08 176.008C435.831 175.248 435.515 174.512 435.136 173.808C434.192 172.09 432.881 170.602 431.296 169.448C430.649 168.978 429.961 168.568 429.24 168.224C428.008 167.64 427.168 167.424 427.184 167.376C427.387 167.368 427.59 167.395 427.784 167.456C428.331 167.573 428.867 167.739 429.384 167.952C430.143 168.271 430.867 168.668 431.544 169.136C433.211 170.288 434.568 171.832 435.496 173.632C435.874 174.363 436.171 175.133 436.384 175.928C436.531 176.452 436.63 176.987 436.68 177.528C436.706 177.739 436.698 177.952 436.656 178.16Z" fill="#BDBDBD"/>
<path d="M345.152 255.201C342.896 254.806 340.573 255.102 338.488 256.049C334.928 254.448 330.536 257.192 330.536 257.192C329.248 256.576 321.488 261.648 321.488 261.648L311.824 266.209L260.2 227.848L274.832 212.648L254.328 191.312L230.328 216.033C227.388 219.214 225.685 223.343 225.528 227.672C225.297 232.281 226.418 236.856 228.753 240.836C231.089 244.816 234.536 248.026 238.672 250.072L299.472 281.272C304.142 281.013 308.775 280.292 313.304 279.12C318.552 277.752 327.52 273.768 327.52 273.768C327.52 273.768 327.52 274.041 329.12 277.153C332.008 282.753 336.24 276.705 336.24 276.705C336.66 277.688 337.215 278.609 337.888 279.44C341.544 282.984 344.08 278.225 344.08 278.225C344.08 278.225 345.176 280.137 348.44 278.713C351.704 277.289 347.968 267.464 347.968 267.464C347.968 267.464 349.064 269.6 351.168 266.896C353.272 264.192 348.648 255.937 345.152 255.201Z" fill="#EDEDED"/>
<path d="M337.848 256.553C338.048 256.414 338.278 256.323 338.52 256.289C339.168 256.148 339.842 256.17 340.48 256.353C341.419 256.62 342.297 257.069 343.064 257.673C343.525 258.017 343.956 258.399 344.352 258.817C344.75 259.309 345.089 259.846 345.36 260.417C346.307 262.325 347.097 264.308 347.72 266.345C347.96 267.145 348.12 267.761 348.224 268.209C348.298 268.436 348.333 268.675 348.328 268.913C348.272 268.913 347.984 267.961 347.44 266.433C346.734 264.444 345.914 262.496 344.984 260.601C344.732 260.071 344.414 259.574 344.04 259.121C343.667 258.72 343.263 258.348 342.832 258.009C342.116 257.425 341.304 256.97 340.432 256.665C339.592 256.417 338.705 256.379 337.848 256.553Z" fill="#BDBDBD"/>
<path d="M344.064 278.249C343.879 277.971 343.726 277.673 343.608 277.361L342.48 274.913C341.528 272.841 340.136 270.009 338.808 266.785C338.273 265.252 337.567 263.784 336.704 262.409C335.958 261.33 334.932 260.475 333.736 259.937C332.941 259.552 332.055 259.395 331.176 259.481C330.552 259.561 330.232 259.729 330.216 259.689C330.2 259.649 330.288 259.633 330.44 259.553C330.662 259.442 330.899 259.364 331.144 259.321C332.062 259.164 333.006 259.284 333.856 259.665C335.125 260.195 336.22 261.071 337.016 262.193C337.914 263.579 338.645 265.066 339.192 266.625C340.512 269.825 341.864 272.689 342.752 274.793C343.192 275.841 343.552 276.705 343.76 277.297C343.896 277.602 343.997 277.921 344.064 278.249Z" fill="#BDBDBD"/>
<path d="M320.368 265.905C320.619 265.726 320.887 265.573 321.168 265.449L323.472 264.337C323.968 264.105 324.488 263.849 325.072 263.593C325.73 263.331 326.439 263.227 327.144 263.289C327.929 263.352 328.681 263.629 329.32 264.089C329.964 264.615 330.506 265.255 330.92 265.977C331.36 266.697 331.72 267.441 332.04 268.129C332.36 268.817 332.736 269.481 333.088 270.105C333.784 271.345 334.44 272.457 334.92 273.433C335.315 274.195 335.657 274.984 335.944 275.793C336.072 276.08 336.158 276.385 336.2 276.697C336.136 276.697 335.704 275.457 334.664 273.569C334.144 272.625 333.472 271.537 332.752 270.297C332.392 269.673 332.032 269.009 331.68 268.313C331.328 267.617 330.992 266.889 330.568 266.193C330.181 265.518 329.68 264.914 329.088 264.409C328.518 263.973 327.841 263.697 327.128 263.609C326.481 263.539 325.826 263.621 325.216 263.849C324.64 264.081 324.088 264.337 323.616 264.537L321.256 265.601C320.974 265.738 320.675 265.84 320.368 265.905Z" fill="#BDBDBD"/>
<path d="M321.488 261.656C321.274 261.834 321.037 261.982 320.784 262.096C320.32 262.36 319.64 262.728 318.792 263.176C317.104 264.072 314.752 265.288 312.144 266.6C309.536 267.912 307.168 269.08 305.44 269.912L303.392 270.872C303.14 271.006 302.87 271.106 302.592 271.168C302.81 270.991 303.049 270.84 303.304 270.72C303.768 270.464 304.448 270.096 305.296 269.648C306.984 268.752 309.336 267.544 311.944 266.224C314.552 264.904 316.92 263.744 318.64 262.92C319.504 262.504 320.24 262.176 320.696 261.952C320.944 261.816 321.211 261.716 321.488 261.656Z" fill="#BDBDBD"/>
<path d="M260.888 227.945C258.871 227.641 256.825 227.574 254.792 227.745C252.774 228.049 250.799 228.586 248.904 229.345C249.386 228.962 249.926 228.659 250.504 228.449C251.856 227.869 253.284 227.486 254.744 227.313C256.209 227.141 257.69 227.178 259.144 227.425C259.75 227.503 260.339 227.679 260.888 227.945Z" fill="#BDBDBD"/>
<path d="M374.896 89.368C362.11 89.185 349.348 90.5279 336.88 93.368C333.992 94.032 330.936 94.88 328.984 97.104C326.912 99.456 326.584 102.808 326.28 105.904C325.949 109.707 325.618 113.507 325.288 117.304C324.739 118.245 324.133 119.151 323.472 120.016C320.464 123.944 316.632 127.216 313.872 131.344C311.112 135.472 309.624 140.944 311.848 145.36C313.2 148.032 315.696 149.92 317.52 152.288C320.616 156.288 321.624 161.496 323.432 166.24C325.24 170.984 328.504 175.84 333.488 176.768C335.888 177.224 338.336 176.72 340.728 177.072C344.304 177.592 347.312 179.936 350.152 182.168C352.992 184.4 356.08 186.672 359.68 187.032C363.28 187.392 367.4 184.952 367.472 181.336C366.137 182.088 364.622 182.464 363.09 182.421C361.559 182.379 360.067 181.921 358.776 181.096C356.68 179.712 355.328 177.472 353.528 175.728C349.104 171.44 341.984 170.08 338.904 164.744C336.504 160.528 337.44 155.24 338.544 150.496C339.496 146.384 340.472 141.928 339.28 137.976C339.374 137.34 339.425 136.699 339.432 136.056C339.432 131.848 337.792 127.336 339.752 123.616C342.344 118.688 349.816 118.064 352.432 113.16C353.96 110.304 353.424 106.656 355.088 103.88C356.648 101.272 359.776 100.072 362.752 99.424C365.728 98.776 368.856 98.48 371.48 96.944C374.104 95.408 376.088 92.16 374.896 89.368Z" fill="#263238"/>
<path d="M384.593 175.201C384.562 175.273 384.522 175.341 384.473 175.401L384.081 175.953C383.543 176.645 382.925 177.271 382.241 177.817C381.14 178.671 379.904 179.333 378.585 179.777C376.839 180.383 374.982 180.599 373.145 180.409C370.9 180.191 368.769 179.318 367.017 177.897C365.113 176.433 363.417 174.489 361.265 172.945C360.186 172.141 358.929 171.612 357.601 171.401C356.199 171.286 354.791 171.543 353.521 172.145C352.167 172.784 350.748 173.272 349.289 173.601C347.722 173.827 346.125 173.547 344.729 172.801C343.363 172.082 342.074 171.227 340.881 170.249C339.687 169.352 338.558 168.371 337.505 167.313C336.463 166.287 335.645 165.056 335.105 163.697C334.622 162.364 334.528 160.922 334.833 159.537C335.125 158.254 335.529 156.998 336.041 155.785C336.505 154.609 336.905 153.449 337.257 152.313C337.9 150.217 338.394 148.079 338.737 145.913C339.231 142.758 339.406 139.56 339.257 136.369C339.209 135.241 339.137 134.361 339.073 133.769C339.073 133.489 339.073 133.273 339.017 133.097C339.004 133.02 339.004 132.942 339.017 132.865C339.044 132.937 339.061 133.012 339.065 133.089L339.161 133.761C339.249 134.353 339.353 135.225 339.425 136.361C339.636 139.566 339.507 142.784 339.041 145.961C338.714 148.155 338.233 150.323 337.601 152.449C337.249 153.585 336.849 154.761 336.393 155.953C335.892 157.133 335.493 158.354 335.201 159.601C334.911 160.917 335.005 162.289 335.473 163.553C335.998 164.858 336.788 166.041 337.793 167.025C338.834 168.066 339.949 169.032 341.129 169.913C342.3 170.872 343.565 171.711 344.905 172.417C346.219 173.139 347.731 173.42 349.217 173.217C350.645 172.891 352.035 172.411 353.361 171.785C354.697 171.166 356.173 170.907 357.641 171.033C359.031 171.247 360.349 171.797 361.481 172.633C363.673 174.233 365.353 176.185 367.225 177.633C368.917 179.03 370.985 179.896 373.169 180.121C376.35 180.47 379.547 179.613 382.129 177.721C383.047 176.982 383.875 176.136 384.593 175.201Z" fill="#263238"/>
<path d="M304.664 149.76C304.433 149.477 304.219 149.181 304.024 148.872C303.479 147.975 303.095 146.99 302.888 145.96C302.572 144.325 302.6 142.641 302.968 141.016C303.448 138.86 304.393 136.834 305.736 135.08C307.389 132.993 309.334 131.156 311.512 129.624C313.808 127.912 316.416 126.32 319.016 124.472C321.789 122.616 324.201 120.271 326.136 117.552C327.089 116.068 327.817 114.451 328.296 112.752C328.808 111.04 329.16 109.248 329.576 107.44C329.937 105.638 330.472 103.875 331.176 102.176C331.879 100.508 332.955 99.0221 334.32 97.8325C335.654 96.7095 337.195 95.8588 338.856 95.3285C340.434 94.8178 342.066 94.4956 343.72 94.3685C346.763 94.2141 349.813 94.3104 352.84 94.6565C355.46 94.9366 358.101 94.9714 360.728 94.7605C362.889 94.5524 364.989 93.9276 366.912 92.9205C368.365 92.1648 369.651 91.1257 370.696 89.8645C371.355 89.0642 371.875 88.1581 372.232 87.1845C372.456 86.5125 372.544 86.1445 372.56 86.1525C372.502 86.5125 372.419 86.868 372.312 87.2165C371.98 88.2133 371.476 89.1446 370.824 89.9685C369.786 91.2801 368.493 92.3685 367.024 93.1685C365.081 94.2119 362.953 94.8668 360.76 95.0965C358.113 95.3288 355.451 95.31 352.808 95.0405C349.801 94.7134 346.772 94.6304 343.752 94.7925C342.119 94.9196 340.508 95.2419 338.952 95.7525C337.343 96.2597 335.849 97.0748 334.552 98.1525C333.235 99.3072 332.199 100.746 331.52 102.36C330.817 104.034 330.281 105.773 329.92 107.552C329.504 109.352 329.12 111.152 328.624 112.888C328.136 114.618 327.389 116.263 326.408 117.768C324.454 120.523 322.014 122.898 319.208 124.776C316.584 126.632 313.976 128.208 311.688 129.896C309.525 131.398 307.591 133.203 305.944 135.256C304.603 136.962 303.655 138.943 303.168 141.056C302.78 142.65 302.728 144.306 303.016 145.92C303.294 147.301 303.855 148.608 304.664 149.76Z" fill="#455A64"/>
<path d="M307.008 153.962C306.115 153.256 305.293 152.465 304.552 151.602C303.639 150.614 302.915 149.467 302.416 148.218C302.102 147.422 301.976 146.565 302.048 145.714C302.147 144.755 302.522 143.846 303.128 143.098C304.424 141.498 306.568 140.65 308.816 140.178C309.944 139.946 311.128 139.762 312.304 139.466C313.519 139.211 314.675 138.731 315.712 138.05C316.759 137.28 317.609 136.274 318.192 135.114C318.801 133.883 319.314 132.607 319.728 131.298C320.154 129.924 320.689 128.586 321.328 127.298C322.013 125.942 323.049 124.796 324.328 123.978C325.628 123.236 327.034 122.696 328.496 122.378C329.912 122.01 331.312 121.714 332.632 121.266C335.172 120.38 337.385 118.749 338.984 116.586C340.464 114.628 341.793 112.561 342.96 110.402C343.988 108.52 345.191 106.739 346.552 105.082C347.688 103.707 349.082 102.568 350.656 101.73C351.846 101.097 353.147 100.703 354.488 100.57C355.336 100.489 356.192 100.559 357.016 100.778C357.29 100.85 357.558 100.947 357.816 101.066C357.816 101.066 357.52 100.986 356.96 100.858C356.143 100.683 355.303 100.639 354.472 100.73C353.162 100.891 351.895 101.298 350.736 101.93C349.2 102.773 347.842 103.906 346.736 105.266C345.405 106.927 344.227 108.705 343.216 110.578C342.065 112.752 340.749 114.836 339.28 116.81C338.457 117.872 337.509 118.831 336.456 119.666C335.356 120.513 334.119 121.167 332.8 121.602C331.456 122.066 330.04 122.362 328.64 122.73C327.216 123.052 325.851 123.591 324.592 124.33C323.366 125.119 322.377 126.224 321.728 127.53C321.09 128.799 320.555 130.118 320.128 131.474C319.696 132.801 319.161 134.093 318.528 135.338C317.908 136.55 317.015 137.601 315.92 138.41C314.837 139.106 313.636 139.6 312.376 139.866C311.176 140.154 309.976 140.33 308.872 140.562C306.656 141.01 304.568 141.834 303.344 143.322C302.763 144.024 302.399 144.88 302.296 145.786C302.218 146.6 302.327 147.421 302.616 148.186C303.096 149.415 303.786 150.552 304.656 151.546C305.36 152.346 305.96 152.978 306.368 153.386L306.84 153.842C306.96 153.898 307.016 153.954 307.008 153.962Z" fill="#455A64"/>
<path d="M405.488 102.281C405.377 102.504 405.237 102.711 405.072 102.897C404.784 103.281 404.36 103.825 403.808 104.497C402.72 105.809 401.153 107.569 399.313 109.417C398.401 110.313 397.544 111.321 396.368 111.689C395.822 111.878 395.227 111.878 394.68 111.689C394.212 111.494 393.826 111.14 393.592 110.689C393.277 110.062 393.173 109.349 393.296 108.657C393.31 108.408 393.372 108.163 393.48 107.937C393.507 108.182 393.507 108.429 393.48 108.673C393.422 109.322 393.559 109.974 393.872 110.545C394.088 110.914 394.424 111.197 394.824 111.345C395.293 111.509 395.804 111.509 396.272 111.345C397.296 111.017 398.12 110.057 399.04 109.145C400.872 107.313 402.464 105.585 403.616 104.345C404.193 103.616 404.819 102.926 405.488 102.281Z" fill="#BDBDBD"/>
<path d="M411.6 102.281C411.469 102.512 411.305 102.722 411.112 102.905C410.784 103.289 410.312 103.833 409.688 104.505L407.536 106.833L406.256 108.193C405.814 108.705 405.326 109.176 404.8 109.601C404.239 110.048 403.562 110.326 402.848 110.401C402.502 110.437 402.153 110.383 401.834 110.242C401.516 110.102 401.239 109.881 401.032 109.601C400.84 109.33 400.736 109.006 400.736 108.673C400.755 108.37 400.848 108.076 401.008 107.817C401.304 107.337 401.608 106.969 401.872 106.601C402.4 105.873 402.84 105.289 403.152 104.889C403.296 104.668 403.472 104.469 403.672 104.297C403.572 104.541 403.443 104.772 403.288 104.985C403.016 105.409 402.616 106.017 402.112 106.769C401.864 107.145 401.56 107.569 401.312 107.985C401.166 108.188 401.088 108.431 401.088 108.681C401.088 108.931 401.166 109.174 401.312 109.377C401.484 109.6 401.711 109.773 401.971 109.88C402.231 109.986 402.514 110.023 402.792 109.985C403.423 109.918 404.022 109.674 404.52 109.281C405.044 108.885 405.529 108.441 405.968 107.953L407.272 106.609L409.488 104.337C410.12 103.697 410.64 103.185 411.008 102.833C411.179 102.623 411.378 102.437 411.6 102.281Z" fill="#BDBDBD"/>
<path d="M495.128 347.2C495.815 345.705 496.855 344.4 498.159 343.396C499.463 342.392 500.992 341.721 502.613 341.44C504.234 341.159 505.899 341.277 507.465 341.782C509.031 342.288 510.45 343.168 511.6 344.344C509.914 347.065 507.295 349.079 504.232 350.008C502.614 350.578 500.856 350.613 499.216 350.107C497.577 349.602 496.144 348.583 495.128 347.2Z" fill="#9FF7B5"/>
<path d="M489.448 348.512C490.183 348.183 490.953 347.942 491.744 347.792C493.192 347.44 495.208 347.048 497.44 346.68C499.672 346.312 501.704 346.032 503.184 345.88C503.977 345.748 504.78 345.687 505.584 345.696C504.815 345.922 504.028 346.083 503.232 346.176L497.512 347.112C495.288 347.48 493.272 347.832 491.816 348.104C491.035 348.285 490.245 348.421 489.448 348.512Z" fill="#263238"/>
<path d="M209.185 296.551C210.891 297.956 212.22 299.763 213.054 301.809C213.888 303.856 214.2 306.077 213.962 308.274C213.724 310.471 212.944 312.575 211.691 314.395C210.438 316.216 208.752 317.696 206.785 318.703C203.849 311.175 202.721 303.071 209.185 296.551Z" fill="#9FF7B5"/>
<path d="M220.312 302.328C220.47 305.182 221.334 307.952 222.828 310.388C224.321 312.825 226.397 314.852 228.868 316.287C231.34 317.722 234.129 318.521 236.986 318.61C239.842 318.7 242.676 318.078 245.232 316.8C239.632 308 232.056 300.584 220.312 302.312" fill="#9538F6"/>
<path d="M194.816 274.504C194.958 274.621 195.084 274.756 195.192 274.904L196.192 276.096C197.04 277.144 198.28 278.656 199.848 280.488C202.968 284.168 207.376 289.176 212.568 294.4C215.168 297.008 217.72 299.416 220.088 301.544C222.456 303.672 224.696 305.488 226.616 306.944C228.125 308.1 229.698 309.168 231.328 310.144C232.488 310.832 233.176 311.12 233.16 311.16C232.982 311.119 232.81 311.055 232.648 310.968C232.168 310.771 231.7 310.544 231.248 310.288C229.58 309.359 227.977 308.32 226.448 307.176C224.496 305.736 222.256 303.92 219.848 301.824C217.44 299.728 214.888 297.296 212.28 294.688C207.08 289.456 202.68 284.408 199.632 280.672C198.088 278.808 196.888 277.264 196.072 276.192L195.128 274.944C195.011 274.807 194.906 274.66 194.816 274.504Z" fill="#263238"/>
<path d="M208.568 307.928C208.496 307.928 208.76 306.808 208.992 304.992C209.586 300.242 209.082 295.42 207.52 290.896C206.92 289.168 206.432 288.136 206.496 288.104C206.662 288.313 206.799 288.545 206.904 288.792C207.238 289.442 207.537 290.109 207.8 290.792C208.662 293.05 209.227 295.411 209.48 297.816C209.729 300.214 209.662 302.635 209.28 305.016C209.161 305.752 209.001 306.481 208.8 307.2C208.751 307.45 208.673 307.695 208.568 307.928Z" fill="#263238"/>
<path d="M561.6 146.032C560.61 144.719 559.953 143.184 559.688 141.561C559.423 139.938 559.557 138.274 560.078 136.714C560.6 135.154 561.493 133.744 562.681 132.606C563.869 131.469 565.315 130.637 566.896 130.184C568.493 132.953 569.025 136.21 568.392 139.344C568.128 141.04 567.324 142.605 566.101 143.81C564.878 145.014 563.3 145.793 561.6 146.032Z" fill="#9FF7B5"/>
<path d="M560.08 151.656C560.136 150.853 560.289 150.061 560.536 149.296C560.912 147.856 561.52 145.896 562.256 143.752C562.992 141.608 563.712 139.688 564.256 138.304C564.512 137.541 564.839 136.805 565.232 136.104C565.064 136.889 564.832 137.66 564.536 138.408C564.008 139.936 563.36 141.808 562.648 143.888C561.936 145.968 561.264 147.968 560.816 149.376C560.61 150.148 560.364 150.909 560.08 151.656Z" fill="#263238"/>
<path d="M526.4 205.552C525.573 202.48 525.505 199.253 526.204 196.149C526.903 193.045 528.347 190.158 530.411 187.737C532.475 185.316 535.098 183.434 538.052 182.253C541.007 181.072 544.204 180.629 547.368 180.96C548.48 187.008 546.568 193.216 543.408 198.472C539.64 204.672 532.152 207.272 526.4 205.552Z" fill="#9538F6"/>
<path d="M502.729 229.232C502.829 229.077 502.944 228.932 503.073 228.8L504.105 227.624C505.025 226.616 506.369 225.176 508.041 223.416C511.401 219.896 516.089 215.088 521.305 209.816C526.521 204.544 531.265 199.784 534.721 196.368L538.833 192.328L539.969 191.248C540.225 191.008 540.369 190.88 540.385 190.896C540.278 191.045 540.157 191.185 540.025 191.312L538.945 192.448L534.945 196.568L521.601 210.104L508.257 223.624L504.257 227.736L503.169 228.856C503.037 228.998 502.889 229.124 502.729 229.232Z" fill="#263238"/>
<g opacity="0.3">
<path d="M526.4 205.552C525.573 202.48 525.505 199.253 526.204 196.149C526.903 193.045 528.347 190.158 530.411 187.737C532.475 185.316 535.098 183.434 538.052 182.253C541.007 181.072 544.204 180.629 547.368 180.96C548.48 187.008 546.568 193.216 543.408 198.472C539.64 204.672 532.152 207.272 526.4 205.552Z" fill="black"/>
</g>
<path d="M515.433 207.928C513.69 207.04 512.191 205.74 511.065 204.14C509.94 202.541 509.223 200.69 508.976 198.75C508.729 196.81 508.96 194.839 509.649 193.009C510.338 191.178 511.464 189.544 512.929 188.248C516.129 190.248 518.177 193.664 519.241 197.28C520.505 201.552 518.601 206.08 515.433 207.928Z" fill="#9538F6"/>
<g opacity="0.3">
<path d="M515.433 207.928C513.69 207.04 512.191 205.74 511.065 204.14C509.94 202.541 509.223 200.69 508.976 198.75C508.729 196.81 508.96 194.839 509.649 193.009C510.338 191.178 511.464 189.544 512.929 188.248C516.129 190.248 518.177 193.664 519.241 197.28C520.505 201.552 518.601 206.08 515.433 207.928Z" fill="black"/>
</g>
<path d="M516.68 214.743C516.57 214.509 516.489 214.261 516.44 214.007C516.304 213.535 516.152 212.839 515.984 211.967C515.648 210.239 515.296 207.823 514.976 205.159C514.656 202.495 514.432 200.063 514.296 198.303C514.181 197.358 514.143 196.406 514.184 195.455C514.384 196.386 514.52 197.33 514.592 198.279C514.808 200.135 515.088 202.495 515.392 205.111C515.696 207.727 516.016 210.183 516.272 211.919C516.528 213.655 516.744 214.727 516.68 214.743Z" fill="#263238"/>
<path d="M365.601 300.648C366.823 297.747 368.75 295.197 371.206 293.228C373.662 291.259 376.57 289.933 379.668 289.371C382.765 288.809 385.953 289.027 388.945 290.007C391.936 290.987 394.636 292.698 396.801 294.984C387.729 302.016 377.145 306.816 365.665 300.648" fill="#9538F6"/>
<g opacity="0.3">
<path d="M365.601 300.648C366.823 297.747 368.75 295.197 371.206 293.228C373.662 291.259 376.57 289.933 379.668 289.371C382.765 288.809 385.953 289.027 388.945 290.007C391.936 290.987 394.636 292.698 396.801 294.984C387.729 302.016 377.145 306.816 365.665 300.648" fill="black"/>
</g>
<path d="M360.504 303.463C360.72 303.247 360.962 303.059 361.224 302.903C361.704 302.559 362.416 302.103 363.328 301.575C368.082 298.826 373.352 297.086 378.808 296.463C379.848 296.351 380.696 296.295 381.28 296.287C381.582 296.245 381.889 296.245 382.192 296.287C382.192 296.351 380.904 296.431 378.84 296.735C376.155 297.128 373.508 297.749 370.928 298.591C368.355 299.442 365.861 300.512 363.472 301.791C361.6 302.815 360.544 303.519 360.504 303.463Z" fill="#263238"/>
<path d="M154.744 196.408C156.941 195.383 159.358 194.921 161.778 195.062C164.198 195.203 166.545 195.944 168.608 197.217C170.67 198.49 172.384 200.257 173.595 202.357C174.806 204.457 175.476 206.825 175.544 209.248C166.704 208.592 158.152 205.88 154.744 196.408Z" fill="#9538F6"/>
<g opacity="0.3">
<path d="M154.744 196.408C156.941 195.383 159.358 194.921 161.778 195.062C164.198 195.203 166.545 195.944 168.608 197.217C170.67 198.49 172.384 200.257 173.595 202.357C174.806 204.457 175.476 206.825 175.544 209.248C166.704 208.592 158.152 205.88 154.744 196.408Z" fill="black"/>
</g>
<path d="M150.353 195.376C150.586 195.338 150.823 195.338 151.057 195.376C151.693 195.445 152.326 195.546 152.953 195.68C155.024 196.113 157.046 196.759 158.985 197.608C160.922 198.466 162.766 199.52 164.489 200.752C165.145 201.232 165.657 201.64 165.993 201.944C166.182 202.087 166.351 202.254 166.497 202.44C166.449 202.496 165.697 201.88 164.321 201C160.824 198.693 156.957 197.002 152.889 196C151.329 195.608 150.345 195.44 150.353 195.376Z" fill="#263238"/>
<path d="M441.408 290.847C441.148 288.694 441.426 286.51 442.22 284.491C443.013 282.473 444.296 280.683 445.952 279.284C447.609 277.884 449.588 276.918 451.71 276.473C453.833 276.029 456.033 276.118 458.112 276.735C455.096 284.071 450.408 290.591 441.408 290.847Z" fill="#9FF7B5"/>
<path d="M439.305 294.295C439.549 293.547 439.885 292.832 440.305 292.167C442.192 288.867 444.758 286.004 447.833 283.767C448.449 283.278 449.124 282.867 449.841 282.543C449.254 283.061 448.64 283.547 448.001 283.999C445.064 286.329 442.543 289.139 440.545 292.311C440.17 292.996 439.756 293.658 439.305 294.295Z" fill="#263238"/>
<path d="M504.36 249.287C503.699 247.221 503.563 245.024 503.962 242.892C504.362 240.761 505.285 238.762 506.649 237.076C508.013 235.39 509.775 234.07 511.775 233.234C513.776 232.398 515.954 232.072 518.112 232.287C516.512 240.063 513.152 247.343 504.36 249.287Z" fill="#9538F6"/>
<g opacity="0.3">
<path d="M504.36 249.287C503.699 247.221 503.563 245.024 503.962 242.892C504.362 240.761 505.285 238.762 506.649 237.076C508.013 235.39 509.775 234.07 511.775 233.234C513.776 232.398 515.954 232.072 518.112 232.287C516.512 240.063 513.152 247.343 504.36 249.287Z" fill="black"/>
</g>
<path d="M502.944 253.071C503.041 252.292 503.238 251.529 503.528 250.799C504.141 249.003 504.945 247.278 505.928 245.655C506.902 244.028 508.05 242.513 509.352 241.135C509.863 240.532 510.446 239.995 511.088 239.535C510.613 240.154 510.106 240.746 509.568 241.311C508.352 242.735 507.253 244.255 506.28 245.855C505.326 247.462 504.499 249.142 503.808 250.879C503.563 251.626 503.274 252.358 502.944 253.071Z" fill="#263238"/>
<path d="M29.8242 192.079C30.2946 189.962 31.284 187.995 32.7036 186.355C34.1231 184.715 35.9282 183.454 37.9563 182.685C39.9843 181.916 42.1718 181.664 44.3217 181.951C46.4716 182.237 48.5164 183.054 50.2722 184.327C44.9922 190.239 38.4002 194.831 29.8242 192.079Z" fill="#9FF7B5"/>
<path d="M26.6963 194.632C27.1775 194.011 27.7307 193.45 28.3443 192.96C29.7788 191.732 31.3395 190.659 33.0003 189.76C34.6625 188.844 36.4195 188.112 38.2403 187.576C38.9813 187.315 39.7531 187.151 40.5363 187.088C39.8153 187.394 39.0783 187.661 38.3283 187.888C34.7831 189.105 31.4716 190.917 28.5363 193.248C27.9507 193.745 27.3363 194.207 26.6963 194.632Z" fill="#263238"/>
</svg>
