<svg width="51" height="31" viewBox="0 0 51 31" fill="none" xmlns="http://www.w3.org/2000/svg">
<rect opacity="0.6" width="51" height="30.8684" rx="2" fill="black"/>
<g clip-path="url(#clip0_1065_75489)">
<path d="M33.7525 15.2277L21.8983 23.1305C21.8141 23.1865 21.7163 23.2187 21.6152 23.2235C21.5142 23.2283 21.4137 23.2057 21.3246 23.1579C21.2354 23.1102 21.1608 23.0392 21.1088 22.9524C21.0568 22.8656 21.0293 22.7664 21.0293 22.6652V6.8597C21.0293 6.75855 21.0568 6.65931 21.1088 6.57254C21.1608 6.48578 21.2354 6.41474 21.3246 6.36699C21.4137 6.31925 21.5142 6.29659 21.6152 6.30142C21.7163 6.30625 21.8141 6.3384 21.8983 6.39444L33.7525 14.2972C33.829 14.3483 33.8918 14.4175 33.9353 14.4986C33.9787 14.5798 34.0014 14.6704 34.0014 14.7625C34.0014 14.8545 33.9787 14.9451 33.9353 15.0263C33.8918 15.1075 33.829 15.1767 33.7525 15.2277Z" fill="white"/>
</g>
<defs>
<clipPath id="clip0_1065_75489">
<rect width="26.8421" height="26.8421" fill="white" transform="translate(12.082 1.3418)"/>
</clipPath>
</defs>
</svg>
