<?xml version="1.0" standalone="no"?>
<!DOCTYPE svg PUBLIC "-//W3C//DTD SVG 20010904//EN"
 "http://www.w3.org/TR/2001/REC-SVG-20010904/DTD/svg10.dtd">
<svg version="1.0" xmlns="http://www.w3.org/2000/svg"
 width="256.000000pt" height="256.000000pt" viewBox="0 0 256.000000 256.000000"
 preserveAspectRatio="xMidYMid meet">
<metadata>
Created by potrace 1.14, written by Peter Selinger 2001-2017
</metadata>
<g transform="translate(0.000000,256.000000) scale(0.100000,-0.100000)"
fill="#000000" stroke="none">
<path d="M0 1280 l0 -1280 1280 0 1280 0 0 1280 0 1280 -1280 0 -1280 0 0
-1280z m1467 869 c94 -13 239 -59 310 -100 141 -81 223 -204 231 -349 l5 -80
-249 2 -249 3 -6 38 c-17 105 -141 159 -291 128 -83 -18 -122 -47 -126 -95 -6
-75 48 -104 309 -162 329 -73 441 -117 538 -212 110 -109 145 -253 106 -437
-50 -236 -235 -380 -550 -425 -156 -22 -391 -7 -552 35 -277 73 -402 215 -427
483 l-6 62 255 0 255 0 0 -29 c0 -75 39 -131 109 -158 58 -22 233 -25 304 -4
56 16 77 41 77 93 0 67 -47 92 -272 144 -84 19 -196 46 -248 60 -303 81 -450
241 -450 489 0 272 181 448 525 509 97 17 295 20 402 5z"/>
</g>
</svg>
