<svg width="20" height="20" viewBox="0 0 20 20" fill="none" xmlns="http://www.w3.org/2000/svg">
<rect width="20" height="20" fill="#6B6B6B"/>
<path d="M13.7 9.885C13.7 10.415 13.6117 10.9067 13.435 11.36C13.2617 11.81 13.015 12.2 12.695 12.53C12.375 12.86 11.99 13.1183 11.54 13.305C11.09 13.4883 10.59 13.58 10.04 13.58C9.49333 13.58 8.995 13.4883 8.545 13.305C8.095 13.1183 7.70833 12.86 7.385 12.53C7.065 12.2 6.81667 11.81 6.64 11.36C6.46333 10.9067 6.375 10.415 6.375 9.885C6.375 9.355 6.46333 8.865 6.64 8.415C6.81667 7.96167 7.065 7.57 7.385 7.24C7.70833 6.91 8.095 6.65333 8.545 6.47C8.995 6.28333 9.49333 6.19 10.04 6.19C10.4067 6.19 10.7517 6.23333 11.075 6.32C11.3983 6.40333 11.695 6.52333 11.965 6.68C12.235 6.83333 12.4767 7.02167 12.69 7.245C12.9067 7.465 13.09 7.71167 13.24 7.985C13.39 8.25833 13.5033 8.555 13.58 8.875C13.66 9.195 13.7 9.53167 13.7 9.885ZM12.325 9.885C12.325 9.48833 12.2717 9.13333 12.165 8.82C12.0583 8.50333 11.9067 8.235 11.71 8.015C11.5133 7.795 11.2733 7.62667 10.99 7.51C10.71 7.39333 10.3933 7.335 10.04 7.335C9.68667 7.335 9.36833 7.39333 9.085 7.51C8.805 7.62667 8.565 7.795 8.365 8.015C8.16833 8.235 8.01667 8.50333 7.91 8.82C7.80333 9.13333 7.75 9.48833 7.75 9.885C7.75 10.2817 7.80333 10.6383 7.91 10.955C8.01667 11.2683 8.16833 11.535 8.365 11.755C8.565 11.9717 8.805 12.1383 9.085 12.255C9.36833 12.3717 9.68667 12.43 10.04 12.43C10.3933 12.43 10.71 12.3717 10.99 12.255C11.2733 12.1383 11.5133 11.9717 11.71 11.755C11.9067 11.535 12.0583 11.2683 12.165 10.955C12.2717 10.6383 12.325 10.2817 12.325 9.885Z" fill="#DDDDDD"/>
</svg>
