<svg width="24" height="14" viewBox="0 0 24 14" fill="none" xmlns="http://www.w3.org/2000/svg">
<rect y="0.25" width="24" height="13.5" fill="#6B6B6B"/>
<path d="M15.7 7.635C15.7 8.165 15.6117 8.65667 15.435 9.11C15.2617 9.56 15.015 9.95 14.695 10.28C14.375 10.61 13.99 10.8683 13.54 11.055C13.09 11.2383 12.59 11.33 12.04 11.33C11.4933 11.33 10.995 11.2383 10.545 11.055C10.095 10.8683 9.70833 10.61 9.385 10.28C9.065 9.95 8.81667 9.56 8.64 9.11C8.46333 8.65667 8.375 8.165 8.375 7.635C8.375 7.105 8.46333 6.615 8.64 6.165C8.81667 5.71167 9.065 5.32 9.385 4.99C9.70833 4.66 10.095 4.40333 10.545 4.22C10.995 4.03333 11.4933 3.94 12.04 3.94C12.4067 3.94 12.7517 3.98333 13.075 4.07C13.3983 4.15333 13.695 4.27333 13.965 4.43C14.235 4.58333 14.4767 4.77167 14.69 4.995C14.9067 5.215 15.09 5.46167 15.24 5.735C15.39 6.00833 15.5033 6.305 15.58 6.625C15.66 6.945 15.7 7.28167 15.7 7.635ZM14.325 7.635C14.325 7.23833 14.2717 6.88333 14.165 6.57C14.0583 6.25333 13.9067 5.985 13.71 5.765C13.5133 5.545 13.2733 5.37667 12.99 5.26C12.71 5.14333 12.3933 5.085 12.04 5.085C11.6867 5.085 11.3683 5.14333 11.085 5.26C10.805 5.37667 10.565 5.545 10.365 5.765C10.1683 5.985 10.0167 6.25333 9.91 6.57C9.80333 6.88333 9.75 7.23833 9.75 7.635C9.75 8.03167 9.80333 8.38833 9.91 8.705C10.0167 9.01833 10.1683 9.285 10.365 9.505C10.565 9.72167 10.805 9.88833 11.085 10.005C11.3683 10.1217 11.6867 10.18 12.04 10.18C12.3933 10.18 12.71 10.1217 12.99 10.005C13.2733 9.88833 13.5133 9.72167 13.71 9.505C13.9067 9.285 14.0583 9.01833 14.165 8.705C14.2717 8.38833 14.325 8.03167 14.325 7.635Z" fill="#DDDDDD"/>
</svg>
