<svg width="16" height="20" viewBox="0 0 16 20" fill="none" xmlns="http://www.w3.org/2000/svg">
<rect width="16" height="20" fill="#6B6B6B"/>
<path d="M11.7 9.885C11.7 10.415 11.6117 10.9067 11.435 11.36C11.2617 11.81 11.015 12.2 10.695 12.53C10.375 12.86 9.99 13.1183 9.54 13.305C9.09 13.4883 8.59 13.58 8.04 13.58C7.49333 13.58 6.995 13.4883 6.545 13.305C6.095 13.1183 5.70833 12.86 5.385 12.53C5.065 12.2 4.81667 11.81 4.64 11.36C4.46333 10.9067 4.375 10.415 4.375 9.885C4.375 9.355 4.46333 8.865 4.64 8.415C4.81667 7.96167 5.065 7.57 5.385 7.24C5.70833 6.91 6.095 6.65333 6.545 6.47C6.995 6.28333 7.49333 6.19 8.04 6.19C8.40667 6.19 8.75167 6.23333 9.075 6.32C9.39833 6.40333 9.695 6.52333 9.965 6.68C10.235 6.83333 10.4767 7.02167 10.69 7.245C10.9067 7.465 11.09 7.71167 11.24 7.985C11.39 8.25833 11.5033 8.555 11.58 8.875C11.66 9.195 11.7 9.53167 11.7 9.885ZM10.325 9.885C10.325 9.48833 10.2717 9.13333 10.165 8.82C10.0583 8.50333 9.90667 8.235 9.71 8.015C9.51333 7.795 9.27333 7.62667 8.99 7.51C8.71 7.39333 8.39333 7.335 8.04 7.335C7.68667 7.335 7.36833 7.39333 7.085 7.51C6.805 7.62667 6.565 7.795 6.365 8.015C6.16833 8.235 6.01667 8.50333 5.91 8.82C5.80333 9.13333 5.75 9.48833 5.75 9.885C5.75 10.2817 5.80333 10.6383 5.91 10.955C6.01667 11.2683 6.16833 11.535 6.365 11.755C6.565 11.9717 6.805 12.1383 7.085 12.255C7.36833 12.3717 7.68667 12.43 8.04 12.43C8.39333 12.43 8.71 12.3717 8.99 12.255C9.27333 12.1383 9.51333 11.9717 9.71 11.755C9.90667 11.535 10.0583 11.2683 10.165 10.955C10.2717 10.6383 10.325 10.2817 10.325 9.885Z" fill="#DDDDDD"/>
</svg>
