<svg width="14" height="24" viewBox="0 0 14 24" fill="none" xmlns="http://www.w3.org/2000/svg">
<rect y="24" width="24" height="13.5" transform="rotate(-90 0 24)" fill="#6B6B6B"/>
<path d="M10.7 11.385C10.7 11.915 10.6117 12.4067 10.435 12.86C10.2617 13.31 10.015 13.7 9.695 14.03C9.375 14.36 8.99 14.6183 8.54 14.805C8.09 14.9883 7.59 15.08 7.04 15.08C6.49333 15.08 5.995 14.9883 5.545 14.805C5.095 14.6183 4.70833 14.36 4.385 14.03C4.065 13.7 3.81667 13.31 3.64 12.86C3.46333 12.4067 3.375 11.915 3.375 11.385C3.375 10.855 3.46333 10.365 3.64 9.915C3.81667 9.46167 4.065 9.07 4.385 8.74C4.70833 8.41 5.095 8.15333 5.545 7.97C5.995 7.78333 6.49333 7.69 7.04 7.69C7.40667 7.69 7.75167 7.73333 8.075 7.82C8.39833 7.90333 8.695 8.02333 8.965 8.18C9.235 8.33333 9.47667 8.52167 9.69 8.745C9.90667 8.965 10.09 9.21167 10.24 9.485C10.39 9.75833 10.5033 10.055 10.58 10.375C10.66 10.695 10.7 11.0317 10.7 11.385ZM9.325 11.385C9.325 10.9883 9.27167 10.6333 9.165 10.32C9.05833 10.0033 8.90667 9.735 8.71 9.515C8.51333 9.295 8.27333 9.12667 7.99 9.01C7.71 8.89333 7.39333 8.835 7.04 8.835C6.68667 8.835 6.36833 8.89333 6.085 9.01C5.805 9.12667 5.565 9.295 5.365 9.515C5.16833 9.735 5.01667 10.0033 4.91 10.32C4.80333 10.6333 4.75 10.9883 4.75 11.385C4.75 11.7817 4.80333 12.1383 4.91 12.455C5.01667 12.7683 5.16833 13.035 5.365 13.255C5.565 13.4717 5.805 13.6383 6.085 13.755C6.36833 13.8717 6.68667 13.93 7.04 13.93C7.39333 13.93 7.71 13.8717 7.99 13.755C8.27333 13.6383 8.51333 13.4717 8.71 13.255C8.90667 13.035 9.05833 12.7683 9.165 12.455C9.27167 12.1383 9.325 11.7817 9.325 11.385Z" fill="#DDDDDD"/>
</svg>
