<svg viewBox="0 0 20 21" fill="none" xmlns="http://www.w3.org/2000/svg">
<path fill-rule="evenodd" clip-rule="evenodd" d="M7.86765 6.799L11.1026 8.71234C11.5118 8.954 11.5118 9.5465 11.1026 9.78817L7.86765 11.7015C7.45098 11.9482 6.92432 11.6473 6.92432 11.1632V7.33734C6.92432 6.85317 7.45098 6.55234 7.86765 6.799V6.799Z" stroke="currentColor" stroke-width="1.5" stroke-linecap="round" stroke-linejoin="round"/>
<path fill-rule="evenodd" clip-rule="evenodd" d="M13.6108 15.5H3.88917C3.12167 15.5 2.5 14.8783 2.5 14.1108V4.38917C2.5 3.62167 3.12167 3 3.88917 3H13.6117C14.3783 3 15 3.62167 15 4.38917V14.1117C15 14.8783 14.3783 15.5 13.6108 15.5V15.5Z" stroke="currentColor" stroke-width="1.5" stroke-linecap="round" stroke-linejoin="round"/>
<path d="M5 15.5V16.3333V16.3333C5 17.2542 5.74583 18 6.66667 18H15.8333C16.7542 18 17.5 17.2542 17.5 16.3333V7.16667C17.5 6.24583 16.7542 5.5 15.8333 5.5H15" stroke="currentColor" stroke-width="1.5" stroke-linecap="round" stroke-linejoin="round"/>
</svg>
