<svg viewBox="0 0 20 20" fill="none" xmlns="http://www.w3.org/2000/svg">
<path d="M10.0026 2.5C9.08594 2.5 8.33594 3.25 8.33594 4.16667C8.33594 5.08333 9.08594 5.83333 10.0026 5.83333C10.9193 5.83333 11.6693 5.08333 11.6693 4.16667C11.6693 3.25 10.9193 2.5 10.0026 2.5ZM10.0026 14.1667C9.08594 14.1667 8.33594 14.9167 8.33594 15.8333C8.33594 16.75 9.08594 17.5 10.0026 17.5C10.9193 17.5 11.6693 16.75 11.6693 15.8333C11.6693 14.9167 10.9193 14.1667 10.0026 14.1667ZM10.0026 8.33333C9.08594 8.33333 8.33594 9.08333 8.33594 10C8.33594 10.9167 9.08594 11.6667 10.0026 11.6667C10.9193 11.6667 11.6693 10.9167 11.6693 10C11.6693 9.08333 10.9193 8.33333 10.0026 8.33333Z" fill="currentColor"/>
</svg>
