<svg viewBox="0 0 16 16" fill="none" xmlns="http://www.w3.org/2000/svg">
<g clip-path="url(#clip0_859_30373)">
<path d="M7.99992 14.6666C4.31792 14.6666 1.33325 11.6819 1.33325 7.99992C1.33325 4.31792 4.31792 1.33325 7.99992 1.33325C11.6819 1.33325 14.6666 4.31792 14.6666 7.99992C14.6666 11.6819 11.6819 14.6666 7.99992 14.6666ZM7.99992 13.3333C9.41441 13.3333 10.771 12.7713 11.7712 11.7712C12.7713 10.771 13.3333 9.41441 13.3333 7.99992C13.3333 6.58543 12.7713 5.22888 11.7712 4.22868C10.771 3.22849 9.41441 2.66659 7.99992 2.66659C6.58543 2.66659 5.22888 3.22849 4.22868 4.22868C3.22849 5.22888 2.66659 6.58543 2.66659 7.99992C2.66659 9.41441 3.22849 10.771 4.22868 11.7712C5.22888 12.7713 6.58543 13.3333 7.99992 13.3333ZM7.33325 9.99992H8.66659V11.3333H7.33325V9.99992ZM7.33325 4.66659H8.66659V8.66659H7.33325V4.66659Z" fill="currentColor"/>
</g>
<defs>
<clipPath id="clip0_859_30373">
<rect width="16" height="16" fill="white"/>
</clipPath>
</defs>
</svg>
