<svg  viewBox="0 0 36 36" fill="none" xmlns="http://www.w3.org/2000/svg">
<g clip-path="url(#clip0_103_8544)">
<path d="M21.75 2.99976C22.636 2.99946 23.5076 3.22337 24.2837 3.65066C25.0599 4.07794 25.7152 4.69469 26.1888 5.44346C26.6624 6.19224 26.9388 7.04869 26.9922 7.93304C27.0457 8.8174 26.8745 9.7009 26.4945 10.5013L31.5 10.4998C31.8978 10.4998 32.2794 10.6578 32.5607 10.9391C32.842 11.2204 33 11.6019 33 11.9998V17.9998C33 18.3976 32.842 18.7791 32.5607 19.0604C32.2794 19.3417 31.8978 19.4998 31.5 19.4998H30V31.4998C30 31.8976 29.842 32.2791 29.5607 32.5604C29.2794 32.8417 28.8978 32.9998 28.5 32.9998H7.5C7.10218 32.9998 6.72064 32.8417 6.43934 32.5604C6.15804 32.2791 6 31.8976 6 31.4998V19.4998H4.5C4.10218 19.4998 3.72064 19.3417 3.43934 19.0604C3.15804 18.7791 3 18.3976 3 17.9998V11.9998C3 11.6019 3.15804 11.2204 3.43934 10.9391C3.72064 10.6578 4.10218 10.4998 4.5 10.4998L9.5055 10.5013C8.97113 9.37877 8.85244 8.10307 9.17055 6.90126C9.48866 5.69945 10.2229 4.64953 11.2426 3.93839C12.2624 3.22725 13.5014 2.90105 14.739 3.01786C15.9767 3.13467 17.1328 3.68691 18.0015 4.57626C18.4891 4.07605 19.072 3.67878 19.7159 3.40798C20.3598 3.13718 21.0515 2.99837 21.75 2.99976ZM27 19.4998H9V29.9998H27V19.4998ZM30 13.4998H6V16.4998H30V13.4998ZM14.25 5.99976C13.6722 6.00005 13.1166 6.22263 12.6984 6.62138C12.2802 7.02012 12.0315 7.56448 12.0037 8.14163C11.9759 8.71879 12.1713 9.28451 12.5493 9.72156C12.9272 10.1586 13.4589 10.4335 14.034 10.4893L14.25 10.4998H16.5V8.24976C16.5 7.69044 16.2916 7.15118 15.9156 6.73713C15.5395 6.32309 15.0227 6.06396 14.466 6.01026L14.25 5.99976ZM21.75 5.99976L21.534 6.01026C21.0141 6.06008 20.5277 6.28923 20.1582 6.65843C19.7887 7.02762 19.5592 7.51386 19.509 8.03376L19.5 8.24976V10.4998H21.75L21.966 10.4893C22.5225 10.4353 23.039 10.1761 23.4149 9.76204C23.7907 9.34803 23.9989 8.80891 23.9989 8.24976C23.9989 7.69061 23.7907 7.1515 23.4149 6.73748C23.039 6.32347 22.5225 6.06422 21.966 6.01026L21.75 5.99976Z" fill="currentColor"/>
</g>
</svg>
