<svg viewBox="0 0 21 20" fill="none" xmlns="http://www.w3.org/2000/svg">
<g clip-path="url(#clip0_1031_153711)">
<path d="M18.3304 12.5V15H20.8304V16.6667H18.3304V19.1667H16.6637V16.6667H14.1637V15H16.6637V12.5H18.3304ZM18.3371 2.5C18.7937 2.5 19.1637 2.87083 19.1637 3.3275V10.8333H17.4971V4.16667H4.16374V15.8325L12.4971 7.5L14.9971 10V12.3575L12.4971 9.8575L6.51957 15.8333H12.4971V17.5H3.32374C3.10441 17.4998 2.89415 17.4125 2.73914 17.2573C2.58414 17.1022 2.49707 16.8918 2.49707 16.6725V3.3275C2.4986 3.10865 2.58615 2.89918 2.74083 2.74435C2.89551 2.58951 3.10489 2.50175 3.32374 2.5H18.3371ZM7.49707 5.83333C7.9391 5.83333 8.36302 6.00893 8.67558 6.32149C8.98814 6.63405 9.16374 7.05797 9.16374 7.5C9.16374 7.94203 8.98814 8.36595 8.67558 8.67851C8.36302 8.99107 7.9391 9.16667 7.49707 9.16667C7.05504 9.16667 6.63112 8.99107 6.31856 8.67851C6.006 8.36595 5.8304 7.94203 5.8304 7.5C5.8304 7.05797 6.006 6.63405 6.31856 6.32149C6.63112 6.00893 7.05504 5.83333 7.49707 5.83333Z" fill="#22031F"/>
</g>
</svg>