<svg viewBox="0 0 20 20" fill="none" xmlns="http://www.w3.org/2000/svg">
<path d="M10.0003 18.3327C5.39783 18.3327 1.66699 14.6018 1.66699 9.99935C1.66699 5.39685 5.39783 1.66602 10.0003 1.66602C14.6028 1.66602 18.3337 5.39685 18.3337 9.99935C18.3337 14.6018 14.6028 18.3327 10.0003 18.3327ZM10.0003 16.666C11.7684 16.666 13.4641 15.9636 14.7144 14.7134C15.9646 13.4632 16.667 11.7675 16.667 9.99935C16.667 8.23124 15.9646 6.53555 14.7144 5.2853C13.4641 4.03506 11.7684 3.33268 10.0003 3.33268C8.23222 3.33268 6.53652 4.03506 5.28628 5.2853C4.03604 6.53555 3.33366 8.23124 3.33366 9.99935C3.33366 11.7675 4.03604 13.4632 5.28628 14.7134C6.53652 15.9636 8.23222 16.666 10.0003 16.666V16.666ZM9.16699 5.83268H10.8337V7.49935H9.16699V5.83268ZM9.16699 9.16602H10.8337V14.166H9.16699V9.16602Z" fill="currentColor"/>
</svg>
