<svg viewBox="0 0 20 20" fill="none" xmlns="http://www.w3.org/2000/svg">
<path d="M1.5 4.3275C1.5 3.87083 1.87083 3.5 2.3275 3.5L17.6725 3.5C18.1292 3.5 18.5 3.87083 18.5 4.3275V15.6725C18.4998 15.8919 18.4125 16.1022 18.2574 16.2574C18.1022 16.4125 17.8919 16.4998 17.6725 16.5H2.3275C2.1081 16.4998 1.89775 16.4125 1.74261 16.2574C1.58747 16.1022 1.50022 15.8919 1.5 15.6725L1.5 4.3275ZM8.85167 7.0125C8.80151 6.97904 8.74322 6.95981 8.683 6.95685C8.62279 6.9539 8.56289 6.96733 8.50971 6.99572C8.45652 7.02411 8.41202 7.06639 8.38097 7.11807C8.34991 7.16974 8.33344 7.22888 8.33333 7.28917V12.7108C8.33344 12.7711 8.34991 12.8303 8.38097 12.8819C8.41202 12.9336 8.45652 12.9759 8.50971 13.0043C8.56289 13.0327 8.62279 13.0461 8.683 13.0431C8.74322 13.0402 8.80151 13.021 8.85167 12.9875L12.9175 10.2775C12.9632 10.2471 13.0007 10.2058 13.0267 10.1574C13.0526 10.109 13.0662 10.0549 13.0662 10C13.0662 9.94508 13.0526 9.89101 13.0267 9.84259C13.0007 9.79418 12.9632 9.75293 12.9175 9.7225L8.85167 7.0125Z" fill="currentColor"/>
</svg>
