<svg viewBox="0 0 20 21" fill="none" xmlns="http://www.w3.org/2000/svg">
<g clip-path="url(#clip0_712_48885)">
<path d="M8.33333 3V4.66667H4.16667V16.3333H15.8333V12.1667H17.5V17.1667C17.5 17.3877 17.4122 17.5996 17.2559 17.7559C17.0996 17.9122 16.8877 18 16.6667 18H3.33333C3.11232 18 2.90036 17.9122 2.74408 17.7559C2.5878 17.5996 2.5 17.3877 2.5 17.1667V3.83333C2.5 3.61232 2.5878 3.40036 2.74408 3.24408C2.90036 3.0878 3.11232 3 3.33333 3H8.33333ZM14.655 4.66667H10.8333V3H17.5V9.66667H15.8333V5.845L10 11.6783L8.82167 10.5L14.655 4.66667Z" fill="currentColor"/>
</g>
<defs>
<clipPath id="clip0_712_48885">
<rect width="20" height="20" fill="currentColor" transform="translate(0 0.5)"/>
</clipPath>
</defs>
</svg>
