<svg viewBox="0 0 20 20" fill="none" xmlns="http://www.w3.org/2000/svg">
<path d="M9.08329 1.75L17.3325 2.92917L18.5108 11.1792L10.8508 18.8392C10.6945 18.9954 10.4826 19.0832 10.2616 19.0832C10.0407 19.0832 9.82873 18.9954 9.67246 18.8392L1.42246 10.5892C1.26623 10.4329 1.17847 10.221 1.17847 10C1.17847 9.77903 1.26623 9.56711 1.42246 9.41083L9.08329 1.75ZM9.67246 3.51833L3.18996 10L10.2616 17.0708L16.7433 10.5892L15.86 4.40167L9.67246 3.51833ZM11.4391 8.82167C11.1265 8.50893 10.9509 8.08482 10.951 7.64262C10.951 7.42367 10.9942 7.20687 11.078 7.0046C11.1618 6.80233 11.2847 6.61855 11.4395 6.46375C11.5944 6.30895 11.7782 6.18617 11.9805 6.10242C12.1828 6.01867 12.3996 5.97558 12.6186 5.97562C13.0608 5.9757 13.4848 6.15143 13.7975 6.46417C14.1101 6.7769 14.2857 7.20102 14.2856 7.64321C14.2855 8.08541 14.1098 8.50946 13.797 8.82208C13.4843 9.13471 13.0602 9.31029 12.618 9.31021C12.1758 9.31014 11.7517 9.1344 11.4391 8.82167Z" fill="currentColor"/>
</svg>
