<svg viewBox="0 0 24 24" fill="none" xmlns="http://www.w3.org/2000/svg">
<g clip-path="url(#clip0_1108_97322)">
<path d="M20.0838 15.1998L21.2858 15.9208C21.36 15.9652 21.4214 16.0281 21.464 16.1033C21.5066 16.1784 21.529 16.2634 21.529 16.3498C21.529 16.4363 21.5066 16.5212 21.464 16.5964C21.4214 16.6716 21.36 16.7344 21.2858 16.7788L12.5158 22.0408C12.3603 22.1343 12.1823 22.1836 12.0008 22.1836C11.8194 22.1836 11.6414 22.1343 11.4858 22.0408L2.71583 16.7788C2.64168 16.7344 2.5803 16.6716 2.53768 16.5964C2.49506 16.5212 2.47266 16.4363 2.47266 16.3498C2.47266 16.2634 2.49506 16.1784 2.53768 16.1033C2.5803 16.0281 2.64168 15.9652 2.71583 15.9208L3.91783 15.1998L12.0008 20.0498L20.0838 15.1998V15.1998ZM20.0838 10.4998L21.2858 11.2208C21.36 11.2652 21.4214 11.3281 21.464 11.4033C21.5066 11.4784 21.529 11.5634 21.529 11.6498C21.529 11.7363 21.5066 11.8212 21.464 11.8964C21.4214 11.9716 21.36 12.0344 21.2858 12.0788L12.0008 17.6498L2.71583 12.0788C2.64168 12.0344 2.5803 11.9716 2.53768 11.8964C2.49506 11.8212 2.47266 11.7363 2.47266 11.6498C2.47266 11.5634 2.49506 11.4784 2.53768 11.4033C2.5803 11.3281 2.64168 11.2652 2.71583 11.2208L3.91783 10.4998L12.0008 15.3498L20.0838 10.4998ZM12.5148 1.30883L21.2858 6.57083C21.36 6.61522 21.4214 6.67807 21.464 6.75326C21.5066 6.82845 21.529 6.9134 21.529 6.99983C21.529 7.08625 21.5066 7.1712 21.464 7.24639C21.4214 7.32158 21.36 7.38443 21.2858 7.42883L12.0008 12.9998L2.71583 7.42883C2.64168 7.38443 2.5803 7.32158 2.53768 7.24639C2.49506 7.1712 2.47266 7.08625 2.47266 6.99983C2.47266 6.9134 2.49506 6.82845 2.53768 6.75326C2.5803 6.67807 2.64168 6.61522 2.71583 6.57083L11.4858 1.30883C11.6414 1.21538 11.8194 1.16602 12.0008 1.16602C12.1823 1.16602 12.3603 1.21538 12.5158 1.30883H12.5148ZM12.0008 3.33183L5.88783 6.99983L12.0008 10.6678L18.1138 6.99983L12.0008 3.33183Z" fill="currentColor"/>
</g>
<defs>
<clipPath id="clip0_1108_97322">
<rect width="24" height="24" fill="none"/>
</clipPath>
</defs>
</svg>
