<svg viewBox="0 0 18 18" fill="none" xmlns="http://www.w3.org/2000/svg">
<path d="M13.1667 3.99935H17.3334V5.66602H15.6667V16.4993C15.6667 16.7204 15.579 16.9323 15.4227 17.0886C15.2664 17.2449 15.0544 17.3327 14.8334 17.3327H3.16675C2.94573 17.3327 2.73377 17.2449 2.57749 17.0886C2.42121 16.9323 2.33341 16.7204 2.33341 16.4993V5.66602H0.666748V3.99935H4.83342V1.49935C4.83342 1.27834 4.92121 1.06637 5.07749 0.910093C5.23377 0.753813 5.44573 0.666016 5.66675 0.666016H12.3334C12.5544 0.666016 12.7664 0.753813 12.9227 0.910093C13.079 1.06637 13.1667 1.27834 13.1667 1.49935V3.99935ZM14.0001 5.66602H4.00008V15.666H14.0001V5.66602ZM10.1784 10.666L11.6517 12.1393L10.4734 13.3177L9.00008 11.8443L7.52675 13.3177L6.34841 12.1393L7.82175 10.666L6.34841 9.19268L7.52675 8.01435L9.00008 9.48768L10.4734 8.01435L11.6517 9.19268L10.1784 10.666ZM6.50008 2.33268V3.99935H11.5001V2.33268H6.50008Z" fill="currentColor"/>
</svg>
