<svg viewBox="0 0 20 20" fill="none" xmlns="http://www.w3.org/2000/svg">
<g clip-path="url(#clip0_823_55895)">
<path d="M12.6631 8.28669C12.3017 7.94429 12.0692 7.48786 12.0048 6.99419L11.669 4.42502L9.39396 5.66336C8.95654 5.90171 8.45035 5.98205 7.96063 5.89086L5.41396 5.41586L5.88896 7.96252C5.98015 8.45225 5.89981 8.95844 5.66146 9.39586L4.42313 11.6709L6.99229 12.0067C7.48567 12.0713 7.94177 12.3038 8.28396 12.665L10.0656 14.5459L11.179 12.2067C11.3927 11.7572 11.7546 11.3949 12.204 11.1809L14.544 10.0675L12.6631 8.28669ZM12.684 12.9225L10.8398 16.7975C10.8049 16.8708 10.7527 16.9345 10.6877 16.9831C10.6227 17.0316 10.5469 17.0637 10.4667 17.0764C10.3866 17.0891 10.3045 17.0821 10.2277 17.056C10.1508 17.03 10.0815 16.9856 10.0256 16.9267L7.07396 13.8109C6.9951 13.7277 6.89008 13.6742 6.77646 13.6592L2.52063 13.1025C2.44022 13.0919 2.3636 13.0619 2.29736 13.0151C2.23113 12.9683 2.17728 12.9061 2.14046 12.8338C2.10363 12.7616 2.08493 12.6815 2.08598 12.6004C2.08702 12.5193 2.10778 12.4396 2.14646 12.3684L4.19813 8.59836C4.25267 8.49753 4.27091 8.38103 4.24979 8.26836L3.46396 4.04919C3.44904 3.96933 3.4538 3.88704 3.47783 3.80943C3.50187 3.73182 3.54445 3.66124 3.6019 3.6038C3.65935 3.54635 3.72993 3.50377 3.80753 3.47973C3.88514 3.4557 3.96743 3.45093 4.04729 3.46586L8.26646 4.25169C8.37913 4.27281 8.49563 4.25457 8.59646 4.20002L12.3665 2.14836C12.4378 2.10967 12.5175 2.08893 12.5986 2.08793C12.6798 2.08693 12.76 2.1057 12.8322 2.14261C12.9045 2.17953 12.9667 2.23349 13.0135 2.29982C13.0602 2.36616 13.0902 2.44288 13.1006 2.52336L13.6573 6.77836C13.6723 6.89197 13.7258 6.997 13.809 7.07586L16.9248 10.0275C16.9837 10.0834 17.0281 10.1527 17.0541 10.2296C17.0802 10.3064 17.0872 10.3885 17.0745 10.4686C17.0618 10.5488 17.0297 10.6246 16.9812 10.6896C16.9326 10.7546 16.8689 10.8068 16.7956 10.8417L12.9206 12.6859C12.8169 12.7352 12.7333 12.8188 12.684 12.9225ZM13.3481 14.5284L14.5265 13.35L18.0623 16.885L16.8831 18.0642L13.3481 14.5284Z" fill="currentColor"/>
</g>
<defs>
<clipPath id="clip0_823_55895">
<rect width="20" height="20" fill="currentColor"/>
</clipPath>
</defs>
</svg>
